<?xml version="1.0" encoding="utf-8"?>
<!-- Generator: Adobe Illustrator 19.0.0, SVG Export Plug-In . SVG Version: 6.00 Build 0)  -->
<svg version="1.1" id="Layer_1" xmlns="http://www.w3.org/2000/svg" xmlns:xlink="http://www.w3.org/1999/xlink" x="0px" y="0px"
	 viewBox="0 0 323 26" style="enable-background:new 0 0 323 26;" xml:space="preserve">
<g id="XMLID_22_" style="display:none;">
	<g id="XMLID_26_" style="display:inline;">
		<g id="XMLID_32_">
			<g id="XMLID_149_">
				<path id="XMLID_150_" style="fill:#262626;" d="M65.5,20.3h-3.7L57.7,15h-1.1v5.3h-3V5.8h5.7c2.9,0,5.1,1.3,5.2,4.6
					c0,2.7-1.2,3.9-3.3,4.4L65.5,20.3z M59.3,12.2c1.3,0,2.2-0.5,2.2-1.8c0-1.2-0.9-1.7-2.2-1.6h-2.7v3.4H59.3z"/>
			</g>
			<g id="XMLID_145_">
				<path id="XMLID_146_" style="fill:#262626;" d="M77.9,10.3v5.4c0,6.4-11.9,6.4-11.9,0v-5.4C66.1,3.8,77.9,3.9,77.9,10.3z
					 M69.1,15.7c0,2.4,5.9,2.4,5.9,0v-5.4c0-2.5-5.9-2.4-5.9,0V15.7z"/>
			</g>
			<g id="XMLID_142_">
				<path id="XMLID_143_" style="fill:#262626;" d="M90.6,17.4c-1.2,2-3.3,3-5.2,3c-2.8,0-5.6-1.6-5.6-4.8v-5.2
					c0-3.2,2.8-4.8,5.7-4.8c1.9,0,4.1,1,5,3.1L88.1,10c-1.2-2.4-5.3-1.9-5.3,0.4v5.2c0,2.2,4,2.7,5.3,0.3L90.6,17.4z"/>
			</g>
			<g id="XMLID_62_">
				<path id="XMLID_140_" style="fill:#262626;" d="M94.9,5.8v6l5.2-6h3.7l-6.2,7.1l6.2,7.4H100l-4.5-5.4l-0.6,0.6v4.8h-3V5.8H94.9z
					"/>
			</g>
			<g id="XMLID_59_">
				<path id="XMLID_60_" style="fill:#262626;" d="M114.9,13.6h-8.4v6.6h-1.2V5.8h1.2v6.7h8.4V5.8h1.2v14.5h-1.2V13.6z"/>
			</g>
			<g id="XMLID_55_">
				<path id="XMLID_56_" style="fill:#262626;" d="M123.2,5.8h1.8l5.2,14.5h-1.3l-1.7-4.8h-6.2l-1.7,4.8H118L123.2,5.8z M126.7,14.2
					l-2.7-7.6l-2.7,7.6H126.7z"/>
			</g>
			<g id="XMLID_51_">
				<path id="XMLID_52_" style="fill:#262626;" d="M142.4,20.3h-1.5l-4.9-6.1h-2.8c0,2,0,4.1,0,6.1h-1.2V5.8h5.5
					c2.7,0,4.8,1.2,4.8,4.2c0,3-2.2,4.1-4.8,4.1h0L142.4,20.3z M137.5,13c2.2,0,3.6-0.7,3.6-3c0-2.3-1.5-3-3.6-3h-4.3v6H137.5z"/>
			</g>
			<g id="XMLID_46_">
				<path id="XMLID_47_" style="fill:#262626;" d="M155.2,16.2c-0.1,3-2.1,4-4.8,4h-5.5V5.7h5.5c2.2,0,4.1,1.2,4.1,3.7
					c0,1.3-0.4,2.5-1.6,3.1C154.6,13.1,155.2,14.5,155.2,16.2z M150.3,12c1.7,0,3-0.7,3-2.5c0-1.8-1.3-2.5-3-2.5H146v5H150.3z
					 M146,13.2V19h4.3c2.1,0,3.6-0.6,3.6-2.8c0-2.3-1.4-3.1-3.6-3H146z"/>
			</g>
			<g id="XMLID_42_">
				<path id="XMLID_43_" style="fill:#262626;" d="M168.8,9.8v6.3c0,5.9-11.5,5.9-11.5,0V9.8C157.3,3.9,168.8,3.9,168.8,9.8z
					 M158.6,16.2c0,4.3,9,4.3,9.1,0V9.8c0-2.3-2.3-3.3-4.6-3.3c-2.2,0-4.5,1-4.5,3.3V16.2z"/>
			</g>
			<g id="XMLID_33_">
				<path id="XMLID_34_" style="fill:#262626;" d="M182,20.3h-1.5l-4.9-6.1h-2.8c0,2,0,4.1,0,6.1h-1.2V5.8h5.5
					c2.7,0,4.8,1.2,4.8,4.2c0,3-2.2,4.1-4.8,4.1h0L182,20.3z M177.2,13c2.2,0,3.6-0.7,3.6-3c0-2.3-1.5-3-3.6-3h-4.3v6H177.2z"/>
			</g>
		</g>
		<path id="XMLID_27_" style="fill:#262626;" d="M32.7,10.7C31.4,7,25,6.2,18.2,8.6c1.5-0.9,3.1-1.7,4.9-2.4
			c8.7-3.7,17.1-3.6,20.1-0.3c0-0.2-0.1-0.3-0.1-0.5c-0.2-1-1-1.8-2-2.2c-2.3-0.9-5-1.7-7.8-2.2c-3.1-0.1-6.8,0.8-10.6,2.5
			c-7.6,3.4-12.4,9.4-10.7,13.3c1.6,3.7,8.4,4.4,15.5,1.6c-1.5,1-3.2,1.9-5,2.6c-5.4,2.4-10.8,3.5-15,3.2c1.8,0.5,3.8,0.8,5.8,1.1
			c2.6,0,5.6-0.6,8.7-1.9C29.2,20.4,34.1,14.7,32.7,10.7z M43.8,11.7c-1.7,4.3-7.2,9.1-14.6,12.2c-2.4,1-4.8,1.7-7,2.2
			c7,0,13.7-1.2,18.8-3.2c1-0.4,1.8-1.3,2-2.3c0.5-2.5,0.8-5,0.8-7.6C43.9,12.6,43.9,12.1,43.8,11.7z M26.2,0.1
			C24.8,0,23.4,0,21.9,0C14.8,0,8,1.1,2.8,3.2c-1,0.4-1.8,1.3-2,2.2C0.3,7.9,0,10.4,0,13c0,0.9,0,1.9,0.1,2.8
			c1.8-4.3,7.2-9.1,14.6-12.4C18.7,1.6,22.7,0.5,26.2,0.1z"/>
	</g>
	<g id="XMLID_432_" style="display:inline;">
		<path id="XMLID_433_" style="fill:#262626;" d="M213.9,10c0-1,0-1.8-0.1-2.2c-0.1-0.8-0.6-1.4-1.4-1.4c-0.7,0-1.1,0.4-1.3,1.1
			c-0.1,0.3-0.1,1.2-0.1,2.6v5.5c0,1.7,0.1,2.4,0.2,2.8c0.2,0.6,0.7,1,1.3,1c0.8,0,1.3-0.6,1.4-1.5c0.1-0.5,0.1-1.7,0.1-2.5h2.6v1
			c0,1.8-0.1,2.5-0.6,3.4c-0.6,1.3-1.9,2-3.5,2c-1.2,0-2.3-0.5-3-1.4c-0.9-1-1-1.9-1-4.6V10c0-2.7,0.2-3.6,1-4.6
			c0.7-0.9,1.8-1.4,3-1.4c1.5,0,2.8,0.7,3.5,1.9c0.5,0.9,0.6,1.5,0.6,3.2V10H213.9z"/>
		<path id="XMLID_441_" style="fill:#262626;" d="M230.6,15.9c0,2.6-0.2,3.5-1,4.5c-0.7,0.9-1.8,1.4-3,1.4c-1.2,0-2.3-0.5-3-1.4
			c-0.8-1-1-2-1-4.5V9.9c0-2.5,0.2-3.5,1-4.5c0.7-0.9,1.8-1.4,3-1.4c1.2,0,2.3,0.5,3,1.4c0.8,1,1,1.9,1,4.5V15.9z M225.1,15.7
			c0,1.6,0.1,2.4,0.2,2.8c0.2,0.6,0.7,1,1.3,1c0.6,0,1.1-0.4,1.3-1.1c0.1-0.3,0.1-1.2,0.1-2.6v-5.5c0-1.7-0.1-2.4-0.2-2.8
			c-0.2-0.6-0.7-1-1.3-1c-0.7,0-1.2,0.4-1.4,1.1c-0.1,0.3-0.1,1.2-0.1,2.6V15.7z"/>
		<path id="XMLID_444_" style="fill:#262626;" d="M242.1,8.5c-0.2-1.6-0.5-2.1-1.5-2.1c-0.9,0-1.5,0.7-1.5,1.7
			c0,1.2,0.5,1.9,2.3,3.6c2.7,2.5,3.4,3.6,3.4,5.7c0,2.6-1.7,4.4-4.1,4.4c-2.5,0-4.2-1.8-4.3-4.7l2.5-0.4c0.1,1.8,0.7,2.7,1.8,2.7
			c1,0,1.6-0.7,1.6-1.9c0-0.6-0.2-1.3-0.7-1.9c-0.4-0.5-0.6-0.7-2-2.1c-2.2-2-3-3.4-3-5.3c0-2.6,1.6-4.3,4.1-4.3
			c2.3,0,3.6,1.4,3.9,4.2L242.1,8.5z"/>
		<path id="XMLID_449_" style="fill:#262626;" d="M255.3,21.6h-2.6V6.7H250V4.3h8.2v2.4h-2.8V21.6z"/>
		<path id="XMLID_456_" style="fill:#262626;" d="M265.5,17.8l-0.6,3.8h-2.6l2.8-17.3h3.4l3,17.3h-2.7l-0.6-3.8H265.5z M266.9,8.4
			l-1,6.9h2L266.9,8.4z"/>
		<path id="XMLID_459_" style="fill:#262626;" d="M294.4,21.6v-12l-2.5,12h-1.2l-2.6-12v12h-2.4V4.3h3.5l2.2,10.5l2-10.5h3.5v17.3
			H294.4z"/>
		<path id="XMLID_495_" style="fill:#262626;" d="M310.1,6.7h-4.5v4.7h3.2v2.4h-3.2v5.3h4.5v2.4H303V4.3h7.1V6.7z"/>
		<path id="XMLID_497_" style="fill:#262626;" d="M321.3,8.5c-0.2-1.6-0.5-2.1-1.5-2.1c-0.9,0-1.5,0.7-1.5,1.7
			c0,1.2,0.5,1.9,2.3,3.6c2.7,2.5,3.4,3.6,3.4,5.7c0,2.6-1.7,4.4-4.1,4.4c-2.5,0-4.2-1.8-4.3-4.7l2.5-0.4c0.1,1.8,0.7,2.7,1.8,2.7
			c1,0,1.6-0.7,1.6-1.9c0-0.6-0.2-1.3-0.7-1.9c-0.4-0.5-0.6-0.7-2-2.1c-2.2-2-3-3.4-3-5.3c0-2.6,1.6-4.3,4.1-4.3
			c2.3,0,3.6,1.4,3.9,4.2L321.3,8.5z"/>
		<path id="XMLID_499_" style="fill:#262626;" d="M332.5,17.8l-0.6,3.8h-2.6l2.8-17.3h3.4l3,17.3h-2.7l-0.6-3.8H332.5z M333.9,8.4
			l-1,6.9h2L333.9,8.4z"/>
	</g>
	<rect id="XMLID_173_" x="194.8" style="display:inline;fill:#231F20;" width="0.7" height="25.9"/>
</g>
<g id="XMLID_172_" style="display:none;">
	<g id="XMLID_176_" style="display:inline;">
		<g id="XMLID_187_">
			<g id="XMLID_222_">
				<path id="XMLID_223_" style="fill:#262626;" d="M65.5,20.3h-3.7L57.7,15h-1.1v5.3h-3V5.8h5.7c2.9,0,5.1,1.3,5.2,4.6
					c0,2.7-1.2,3.9-3.3,4.4L65.5,20.3z M59.3,12.2c1.3,0,2.2-0.5,2.2-1.8c0-1.2-0.9-1.7-2.2-1.6h-2.7v3.4H59.3z"/>
			</g>
			<g id="XMLID_218_">
				<path id="XMLID_219_" style="fill:#262626;" d="M77.9,10.3v5.4c0,6.4-11.9,6.4-11.9,0v-5.4C66.1,3.8,77.9,3.9,77.9,10.3z
					 M69.1,15.7c0,2.4,5.9,2.4,5.9,0v-5.4c0-2.5-5.9-2.4-5.9,0V15.7z"/>
			</g>
			<g id="XMLID_215_">
				<path id="XMLID_216_" style="fill:#262626;" d="M90.6,17.4c-1.2,2-3.3,3-5.2,3c-2.8,0-5.6-1.6-5.6-4.8v-5.2
					c0-3.2,2.8-4.8,5.7-4.8c1.9,0,4.1,1,5,3.1L88.1,10c-1.2-2.4-5.3-1.9-5.3,0.4v5.2c0,2.2,4,2.7,5.3,0.3L90.6,17.4z"/>
			</g>
			<g id="XMLID_212_">
				<path id="XMLID_213_" style="fill:#262626;" d="M94.9,5.8v6l5.2-6h3.7l-6.2,7.1l6.2,7.4H100l-4.5-5.4l-0.6,0.6v4.8h-3V5.8H94.9z
					"/>
			</g>
			<g id="XMLID_209_">
				<path id="XMLID_210_" style="fill:#262626;" d="M114.9,13.6h-8.4v6.6h-1.2V5.8h1.2v6.7h8.4V5.8h1.2v14.5h-1.2V13.6z"/>
			</g>
			<g id="XMLID_205_">
				<path id="XMLID_206_" style="fill:#262626;" d="M123.2,5.8h1.8l5.2,14.5h-1.3l-1.7-4.8h-6.2l-1.7,4.8H118L123.2,5.8z
					 M126.7,14.2l-2.7-7.6l-2.7,7.6H126.7z"/>
			</g>
			<g id="XMLID_201_">
				<path id="XMLID_202_" style="fill:#262626;" d="M142.4,20.3h-1.5l-4.9-6.1h-2.8c0,2,0,4.1,0,6.1h-1.2V5.8h5.5
					c2.7,0,4.8,1.2,4.8,4.2c0,3-2.2,4.1-4.8,4.1h0L142.4,20.3z M137.5,13c2.2,0,3.6-0.7,3.6-3c0-2.3-1.5-3-3.6-3h-4.3v6H137.5z"/>
			</g>
			<g id="XMLID_196_">
				<path id="XMLID_197_" style="fill:#262626;" d="M155.2,16.2c-0.1,3-2.1,4-4.8,4h-5.5V5.7h5.5c2.2,0,4.1,1.2,4.1,3.7
					c0,1.3-0.4,2.5-1.6,3.1C154.6,13.1,155.2,14.5,155.2,16.2z M150.3,12c1.7,0,3-0.7,3-2.5c0-1.8-1.3-2.5-3-2.5H146v5H150.3z
					 M146,13.2V19h4.3c2.1,0,3.6-0.6,3.6-2.8c0-2.3-1.4-3.1-3.6-3H146z"/>
			</g>
			<g id="XMLID_192_">
				<path id="XMLID_193_" style="fill:#262626;" d="M168.8,9.8v6.3c0,5.9-11.5,5.9-11.5,0V9.8C157.3,3.9,168.8,3.9,168.8,9.8z
					 M158.6,16.2c0,4.3,9,4.3,9.1,0V9.8c0-2.3-2.3-3.3-4.6-3.3c-2.2,0-4.5,1-4.5,3.3V16.2z"/>
			</g>
			<g id="XMLID_188_">
				<path id="XMLID_189_" style="fill:#262626;" d="M182,20.3h-1.5l-4.9-6.1h-2.8c0,2,0,4.1,0,6.1h-1.2V5.8h5.5
					c2.7,0,4.8,1.2,4.8,4.2c0,3-2.2,4.1-4.8,4.1h0L182,20.3z M177.2,13c2.2,0,3.6-0.7,3.6-3c0-2.3-1.5-3-3.6-3h-4.3v6H177.2z"/>
			</g>
		</g>
		<path id="XMLID_177_" style="fill:#262626;" d="M32.7,10.7C31.4,7,25,6.2,18.2,8.6c1.5-0.9,3.1-1.7,4.9-2.4
			c8.7-3.7,17.1-3.6,20.1-0.3c0-0.2-0.1-0.3-0.1-0.5c-0.2-1-1-1.8-2-2.2c-2.3-0.9-5-1.7-7.8-2.2c-3.1-0.1-6.8,0.8-10.6,2.5
			c-7.6,3.4-12.4,9.4-10.7,13.3c1.6,3.7,8.4,4.4,15.5,1.6c-1.5,1-3.2,1.9-5,2.6c-5.4,2.4-10.8,3.5-15,3.2c1.8,0.5,3.8,0.8,5.8,1.1
			c2.6,0,5.6-0.6,8.7-1.9C29.2,20.4,34.1,14.7,32.7,10.7z M43.8,11.7c-1.7,4.3-7.2,9.1-14.6,12.2c-2.4,1-4.8,1.7-7,2.2
			c7,0,13.7-1.2,18.8-3.2c1-0.4,1.8-1.3,2-2.3c0.5-2.5,0.8-5,0.8-7.6C43.9,12.6,43.9,12.1,43.8,11.7z M26.2,0.1
			C24.8,0,23.4,0,21.9,0C14.8,0,8,1.1,2.8,3.2c-1,0.4-1.8,1.3-2,2.2C0.3,7.9,0,10.4,0,13c0,0.9,0,1.9,0.1,2.8
			c1.8-4.3,7.2-9.1,14.6-12.4C18.7,1.6,22.7,0.5,26.2,0.1z"/>
	</g>
	<g id="XMLID_374_" style="display:inline;">
		<path id="XMLID_375_" style="fill:#262626;" d="M216.6,15.9c0,2.6-0.2,3.5-1,4.5c-0.7,0.9-1.8,1.4-3,1.4c-1.2,0-2.3-0.5-3-1.4
			c-0.8-1-1-2-1-4.5V9.9c0-2.5,0.2-3.5,1-4.5c0.7-0.9,1.8-1.4,3-1.4c1.2,0,2.3,0.5,3,1.4c0.8,1,1,1.9,1,4.5V15.9z M211,15.7
			c0,1.6,0.1,2.4,0.2,2.8c0.2,0.6,0.7,1,1.3,1c0.6,0,1.1-0.4,1.3-1.1c0.1-0.3,0.1-1.2,0.1-2.6v-5.5c0-1.7-0.1-2.4-0.2-2.8
			c-0.2-0.6-0.7-1-1.3-1c-0.7,0-1.2,0.4-1.4,1.1c-0.1,0.3-0.1,1.2-0.1,2.6V15.7z"/>
		<path id="XMLID_378_" style="fill:#262626;" d="M225.3,21.6h-2.6V4.3h3.6c3,0,4.3,1.6,4.3,5c0,2.2-0.5,3.4-1.7,4.4l2,7.9h-2.8
			l-1.6-7.2h-1.2V21.6z M226.1,11.9c0.9,0,1.2-0.1,1.5-0.5c0.3-0.4,0.4-1.2,0.4-2.1c0-0.9-0.2-1.8-0.5-2.2c-0.3-0.4-0.6-0.5-1.4-0.5
			h-0.8v5.2H226.1z"/>
		<path id="XMLID_389_" style="fill:#262626;" d="M239.8,17.8l-0.6,3.8h-2.6l2.8-17.3h3.4l3,17.3h-2.7l-0.6-3.8H239.8z M241.1,8.4
			l-1,6.9h2L241.1,8.4z"/>
		<path id="XMLID_392_" style="fill:#262626;" d="M257.7,21.6l-3.8-10.7v10.7h-2.4V4.3h2.6l3.6,10.3V4.3h2.4v17.3H257.7z"/>
		<path id="XMLID_428_" style="fill:#262626;" d="M274.4,21.6h-1.3l-0.5-1.4c-0.7,1.2-1.5,1.6-2.7,1.6c-1.2,0-2.3-0.5-2.9-1.5
			c-0.6-1-0.8-2.2-0.8-4.3V10c0-2.7,0.2-3.6,1-4.6c0.7-0.9,1.8-1.4,3-1.4c1.9,0,3.4,1.1,3.9,2.9c0.2,0.6,0.2,0.9,0.2,3h-2.6
			c0-1,0-1.7-0.1-2.1c-0.1-0.8-0.6-1.4-1.4-1.4c-0.6,0-1.1,0.4-1.3,1.1c-0.1,0.3-0.1,1.2-0.1,2.6v5.5c0,1.3,0.1,2.4,0.2,2.8
			c0.2,0.6,0.7,1,1.3,1c0.6,0,1.2-0.4,1.3-1.1c0.1-0.4,0.1-1.2,0.1-2.6V15h-1.6v-2.2h4.2V21.6z"/>
		<path id="XMLID_430_" style="fill:#262626;" d="M287.6,6.7h-4.5v4.7h3.2v2.4h-3.2v5.3h4.5v2.4h-7.1V4.3h7.1V6.7z"/>
	</g>
	<rect id="XMLID_234_" x="194.8" style="display:inline;fill:#231F20;" width="0.7" height="25.9"/>
</g>
<g id="XMLID_233_" style="display:none;">
	<g id="XMLID_237_" style="display:inline;">
		<g id="XMLID_249_">
			<g id="XMLID_289_">
				<path id="XMLID_290_" style="fill:#262626;" d="M65.5,20.3h-3.7L57.7,15h-1.1v5.3h-3V5.8h5.7c2.9,0,5.1,1.3,5.2,4.6
					c0,2.7-1.2,3.9-3.3,4.4L65.5,20.3z M59.3,12.2c1.3,0,2.2-0.5,2.2-1.8c0-1.2-0.9-1.7-2.2-1.6h-2.7v3.4H59.3z"/>
			</g>
			<g id="XMLID_285_">
				<path id="XMLID_286_" style="fill:#262626;" d="M77.9,10.3v5.4c0,6.4-11.9,6.4-11.9,0v-5.4C66.1,3.8,77.9,3.9,77.9,10.3z
					 M69.1,15.7c0,2.4,5.9,2.4,5.9,0v-5.4c0-2.5-5.9-2.4-5.9,0V15.7z"/>
			</g>
			<g id="XMLID_282_">
				<path id="XMLID_283_" style="fill:#262626;" d="M90.6,17.4c-1.2,2-3.3,3-5.2,3c-2.8,0-5.6-1.6-5.6-4.8v-5.2
					c0-3.2,2.8-4.8,5.7-4.8c1.9,0,4.1,1,5,3.1L88.1,10c-1.2-2.4-5.3-1.9-5.3,0.4v5.2c0,2.2,4,2.7,5.3,0.3L90.6,17.4z"/>
			</g>
			<g id="XMLID_279_">
				<path id="XMLID_280_" style="fill:#262626;" d="M94.9,5.8v6l5.2-6h3.7l-6.2,7.1l6.2,7.4H100l-4.5-5.4l-0.6,0.6v4.8h-3V5.8H94.9z
					"/>
			</g>
			<g id="XMLID_276_">
				<path id="XMLID_277_" style="fill:#262626;" d="M114.9,13.6h-8.4v6.6h-1.2V5.8h1.2v6.7h8.4V5.8h1.2v14.5h-1.2V13.6z"/>
			</g>
			<g id="XMLID_272_">
				<path id="XMLID_273_" style="fill:#262626;" d="M123.2,5.8h1.8l5.2,14.5h-1.3l-1.7-4.8h-6.2l-1.7,4.8H118L123.2,5.8z
					 M126.7,14.2l-2.7-7.6l-2.7,7.6H126.7z"/>
			</g>
			<g id="XMLID_268_">
				<path id="XMLID_269_" style="fill:#262626;" d="M142.4,20.3h-1.5l-4.9-6.1h-2.8c0,2,0,4.1,0,6.1h-1.2V5.8h5.5
					c2.7,0,4.8,1.2,4.8,4.2c0,3-2.2,4.1-4.8,4.1h0L142.4,20.3z M137.5,13c2.2,0,3.6-0.7,3.6-3c0-2.3-1.5-3-3.6-3h-4.3v6H137.5z"/>
			</g>
			<g id="XMLID_263_">
				<path id="XMLID_264_" style="fill:#262626;" d="M155.2,16.2c-0.1,3-2.1,4-4.8,4h-5.5V5.7h5.5c2.2,0,4.1,1.2,4.1,3.7
					c0,1.3-0.4,2.5-1.6,3.1C154.6,13.1,155.2,14.5,155.2,16.2z M150.3,12c1.7,0,3-0.7,3-2.5c0-1.8-1.3-2.5-3-2.5H146v5H150.3z
					 M146,13.2V19h4.3c2.1,0,3.6-0.6,3.6-2.8c0-2.3-1.4-3.1-3.6-3H146z"/>
			</g>
			<g id="XMLID_259_">
				<path id="XMLID_260_" style="fill:#262626;" d="M168.8,9.8v6.3c0,5.9-11.5,5.9-11.5,0V9.8C157.3,3.9,168.8,3.9,168.8,9.8z
					 M158.6,16.2c0,4.3,9,4.3,9.1,0V9.8c0-2.3-2.3-3.3-4.6-3.3c-2.2,0-4.5,1-4.5,3.3V16.2z"/>
			</g>
			<g id="XMLID_250_">
				<path id="XMLID_251_" style="fill:#262626;" d="M182,20.3h-1.5l-4.9-6.1h-2.8c0,2,0,4.1,0,6.1h-1.2V5.8h5.5
					c2.7,0,4.8,1.2,4.8,4.2c0,3-2.2,4.1-4.8,4.1h0L182,20.3z M177.2,13c2.2,0,3.6-0.7,3.6-3c0-2.3-1.5-3-3.6-3h-4.3v6H177.2z"/>
			</g>
		</g>
		<path id="XMLID_238_" style="fill:#262626;" d="M32.7,10.7C31.4,7,25,6.2,18.2,8.6c1.5-0.9,3.1-1.7,4.9-2.4
			c8.7-3.7,17.1-3.6,20.1-0.3c0-0.2-0.1-0.3-0.1-0.5c-0.2-1-1-1.8-2-2.2c-2.3-0.9-5-1.7-7.8-2.2c-3.1-0.1-6.8,0.8-10.6,2.5
			c-7.6,3.4-12.4,9.4-10.7,13.3c1.6,3.7,8.4,4.4,15.5,1.6c-1.5,1-3.2,1.9-5,2.6c-5.4,2.4-10.8,3.5-15,3.2c1.8,0.5,3.8,0.8,5.8,1.1
			c2.6,0,5.6-0.6,8.7-1.9C29.2,20.4,34.1,14.7,32.7,10.7z M43.8,11.7c-1.7,4.3-7.2,9.1-14.6,12.2c-2.4,1-4.8,1.7-7,2.2
			c7,0,13.7-1.2,18.8-3.2c1-0.4,1.8-1.3,2-2.3c0.5-2.5,0.8-5,0.8-7.6C43.9,12.6,43.9,12.1,43.8,11.7z M26.2,0.1
			C24.8,0,23.4,0,21.9,0C14.8,0,8,1.1,2.8,3.2c-1,0.4-1.8,1.3-2,2.2C0.3,7.9,0,10.4,0,13c0,0.9,0,1.9,0.1,2.8
			c1.8-4.3,7.2-9.1,14.6-12.4C18.7,1.6,22.7,0.5,26.2,0.1z"/>
	</g>
	<g id="XMLID_228_" style="display:inline;">
		<path id="XMLID_229_" style="fill:#262626;" d="M217.2,21.6v-12l-2.5,12h-1.2l-2.6-12v12h-2.4V4.3h3.5l2.2,10.5l2-10.5h3.5v17.3
			H217.2z"/>
		<path id="XMLID_248_" style="fill:#262626;" d="M228.4,21.6h-2.6V4.3h2.6V21.6z"/>
		<path id="XMLID_255_" style="fill:#262626;" d="M239.8,8.5c-0.2-1.6-0.5-2.1-1.5-2.1c-0.9,0-1.5,0.7-1.5,1.7
			c0,1.2,0.5,1.9,2.3,3.6c2.7,2.5,3.4,3.6,3.4,5.7c0,2.6-1.7,4.4-4.1,4.4c-2.5,0-4.2-1.8-4.3-4.7l2.5-0.4c0.1,1.8,0.7,2.7,1.8,2.7
			c1,0,1.6-0.7,1.6-1.9c0-0.6-0.2-1.3-0.7-1.9c-0.4-0.5-0.6-0.7-2-2.1c-2.2-2-3-3.4-3-5.3c0-2.6,1.6-4.3,4.1-4.3
			c2.3,0,3.6,1.4,3.9,4.2L239.8,8.5z"/>
		<path id="XMLID_257_" style="fill:#262626;" d="M253.8,8.5c-0.2-1.6-0.5-2.1-1.5-2.1c-0.9,0-1.5,0.7-1.5,1.7
			c0,1.2,0.5,1.9,2.3,3.6c2.7,2.5,3.4,3.6,3.4,5.7c0,2.6-1.7,4.4-4.1,4.4c-2.5,0-4.2-1.8-4.3-4.7l2.5-0.4c0.1,1.8,0.7,2.7,1.8,2.7
			c1,0,1.6-0.7,1.6-1.9c0-0.6-0.2-1.3-0.7-1.9c-0.4-0.5-0.6-0.7-2-2.1c-2.2-2-3-3.4-3-5.3c0-2.6,1.6-4.3,4.1-4.3
			c2.3,0,3.6,1.4,3.9,4.2L253.8,8.5z"/>
		<path id="XMLID_308_" style="fill:#262626;" d="M264.8,21.6h-2.6V4.3h2.6V21.6z"/>
		<path id="XMLID_310_" style="fill:#262626;" d="M279,15.9c0,2.6-0.2,3.5-1,4.5c-0.7,0.9-1.8,1.4-3,1.4c-1.2,0-2.3-0.5-3-1.4
			c-0.8-1-1-2-1-4.5V9.9c0-2.5,0.2-3.5,1-4.5c0.7-0.9,1.8-1.4,3-1.4c1.2,0,2.3,0.5,3,1.4c0.8,1,1,1.9,1,4.5V15.9z M273.5,15.7
			c0,1.6,0.1,2.4,0.2,2.8c0.2,0.6,0.7,1,1.3,1c0.6,0,1.1-0.4,1.3-1.1c0.1-0.3,0.1-1.2,0.1-2.6v-5.5c0-1.7-0.1-2.4-0.2-2.8
			c-0.2-0.6-0.7-1-1.3-1c-0.7,0-1.2,0.4-1.4,1.1c-0.1,0.3-0.1,1.2-0.1,2.6V15.7z"/>
		<path id="XMLID_321_" style="fill:#262626;" d="M291.4,21.6l-3.8-10.7v10.7h-2.4V4.3h2.6l3.6,10.3V4.3h2.4v17.3H291.4z"/>
		<path id="XMLID_323_" style="fill:#262626;" d="M311.1,21.6l-3.3-17.3h2.6l2,11.1l1.8-11.1h2.6l-3,17.3H311.1z"/>
		<path id="XMLID_325_" style="fill:#262626;" d="M325.1,21.6h-2.6V4.3h2.6V21.6z"/>
		<path id="XMLID_361_" style="fill:#262626;" d="M338.4,6.7h-4.5v4.7h3.2v2.4h-3.2v5.3h4.5v2.4h-7.1V4.3h7.1V6.7z"/>
		<path id="XMLID_363_" style="fill:#262626;" d="M347.9,4.3v11.9c0,2.5-0.2,3.5-0.7,4.3c-0.5,0.8-1.4,1.1-2.6,1.1h-1.2v-2.4h0.6
			c1,0,1.4-0.6,1.4-2.6V4.3H347.9z"/>
		<path id="XMLID_365_" style="fill:#262626;" d="M362.2,15.9c0,2.6-0.2,3.5-1,4.5c-0.7,0.9-1.8,1.4-3,1.4c-1.2,0-2.3-0.5-3-1.4
			c-0.8-1-1-2-1-4.5V9.9c0-2.5,0.2-3.5,1-4.5c0.7-0.9,1.8-1.4,3-1.4c1.2,0,2.3,0.5,3,1.4c0.8,1,1,1.9,1,4.5V15.9z M356.6,15.7
			c0,1.6,0.1,2.4,0.2,2.8c0.2,0.6,0.7,1,1.3,1c0.6,0,1.1-0.4,1.3-1.1c0.1-0.3,0.1-1.2,0.1-2.6v-5.5c0-1.7-0.1-2.4-0.2-2.8
			c-0.2-0.6-0.7-1-1.3-1c-0.7,0-1.2,0.4-1.4,1.1c-0.1,0.3-0.1,1.2-0.1,2.6V15.7z"/>
	</g>
	<rect id="XMLID_235_" x="194.8" style="display:inline;fill:#231F20;" width="0.7" height="25.9"/>
</g>
<g id="XMLID_300_">
	<g id="XMLID_304_">
		<g id="XMLID_316_">
			<g id="XMLID_356_">
				<path id="XMLID_357_" style="fill:#262626;" d="M65.5,20.3h-3.7L57.7,15h-1.1v5.3h-3V5.8h5.7c2.9,0,5.1,1.3,5.2,4.6
					c0,2.7-1.2,3.9-3.3,4.4L65.5,20.3z M59.3,12.2c1.3,0,2.2-0.5,2.2-1.8c0-1.2-0.9-1.7-2.2-1.6h-2.7v3.4H59.3z"/>
			</g>
			<g id="XMLID_352_">
				<path id="XMLID_353_" style="fill:#262626;" d="M77.9,10.3v5.4c0,6.4-11.9,6.4-11.9,0v-5.4C66.1,3.8,77.9,3.9,77.9,10.3z
					 M69.1,15.7c0,2.4,5.9,2.4,5.9,0v-5.4c0-2.5-5.9-2.4-5.9,0V15.7z"/>
			</g>
			<g id="XMLID_349_">
				<path id="XMLID_350_" style="fill:#262626;" d="M90.6,17.4c-1.2,2-3.3,3-5.2,3c-2.8,0-5.6-1.6-5.6-4.8v-5.2
					c0-3.2,2.8-4.8,5.7-4.8c1.9,0,4.1,1,5,3.1L88.1,10c-1.2-2.4-5.3-1.9-5.3,0.4v5.2c0,2.2,4,2.7,5.3,0.3L90.6,17.4z"/>
			</g>
			<g id="XMLID_346_">
				<path id="XMLID_347_" style="fill:#262626;" d="M94.9,5.8v6l5.2-6h3.7l-6.2,7.1l6.2,7.4H100l-4.5-5.4l-0.6,0.6v4.8h-3V5.8H94.9z
					"/>
			</g>
			<g id="XMLID_343_">
				<path id="XMLID_344_" style="fill:#262626;" d="M114.9,13.6h-8.4v6.6h-1.2V5.8h1.2v6.7h8.4V5.8h1.2v14.5h-1.2V13.6z"/>
			</g>
			<g id="XMLID_339_">
				<path id="XMLID_340_" style="fill:#262626;" d="M123.2,5.8h1.8l5.2,14.5h-1.3l-1.7-4.8h-6.2l-1.7,4.8H118L123.2,5.8z
					 M126.7,14.2l-2.7-7.6l-2.7,7.6H126.7z"/>
			</g>
			<g id="XMLID_335_">
				<path id="XMLID_336_" style="fill:#262626;" d="M142.4,20.3h-1.5l-4.9-6.1h-2.8c0,2,0,4.1,0,6.1h-1.2V5.8h5.5
					c2.7,0,4.8,1.2,4.8,4.2c0,3-2.2,4.1-4.8,4.1h0L142.4,20.3z M137.5,13c2.2,0,3.6-0.7,3.6-3c0-2.3-1.5-3-3.6-3h-4.3v6H137.5z"/>
			</g>
			<g id="XMLID_330_">
				<path id="XMLID_331_" style="fill:#262626;" d="M155.2,16.2c-0.1,3-2.1,4-4.8,4h-5.5V5.7h5.5c2.2,0,4.1,1.2,4.1,3.7
					c0,1.3-0.4,2.5-1.6,3.1C154.6,13.1,155.2,14.5,155.2,16.2z M150.3,12c1.7,0,3-0.7,3-2.5c0-1.8-1.3-2.5-3-2.5H146v5H150.3z
					 M146,13.2V19h4.3c2.1,0,3.6-0.6,3.6-2.8c0-2.3-1.4-3.1-3.6-3H146z"/>
			</g>
			<g id="XMLID_326_">
				<path id="XMLID_327_" style="fill:#262626;" d="M168.8,9.8v6.3c0,5.9-11.5,5.9-11.5,0V9.8C157.3,3.9,168.8,3.9,168.8,9.8z
					 M158.6,16.2c0,4.3,9,4.3,9.1,0V9.8c0-2.3-2.3-3.3-4.6-3.3c-2.2,0-4.5,1-4.5,3.3V16.2z"/>
			</g>
			<g id="XMLID_317_">
				<path id="XMLID_318_" style="fill:#262626;" d="M182,20.3h-1.5l-4.9-6.1h-2.8c0,2,0,4.1,0,6.1h-1.2V5.8h5.5
					c2.7,0,4.8,1.2,4.8,4.2c0,3-2.2,4.1-4.8,4.1h0L182,20.3z M177.2,13c2.2,0,3.6-0.7,3.6-3c0-2.3-1.5-3-3.6-3h-4.3v6H177.2z"/>
			</g>
		</g>
		<path id="XMLID_305_" style="fill:#262626;" d="M32.7,10.7C31.4,7,25,6.2,18.2,8.6c1.5-0.9,3.1-1.7,4.9-2.4
			c8.7-3.7,17.1-3.6,20.1-0.3c0-0.2-0.1-0.3-0.1-0.5c-0.2-1-1-1.8-2-2.2c-2.3-0.9-5-1.7-7.8-2.2c-3.1-0.1-6.8,0.8-10.6,2.5
			c-7.6,3.4-12.4,9.4-10.7,13.3c1.6,3.7,8.4,4.4,15.5,1.6c-1.5,1-3.2,1.9-5,2.6c-5.4,2.4-10.8,3.5-15,3.2c1.8,0.5,3.8,0.8,5.8,1.1
			c2.6,0,5.6-0.6,8.7-1.9C29.2,20.4,34.1,14.7,32.7,10.7z M43.8,11.7c-1.7,4.3-7.2,9.1-14.6,12.2c-2.4,1-4.8,1.7-7,2.2
			c7,0,13.7-1.2,18.8-3.2c1-0.4,1.8-1.3,2-2.3c0.5-2.5,0.8-5,0.8-7.6C43.9,12.6,43.9,12.1,43.8,11.7z M26.2,0.1
			C24.8,0,23.4,0,21.9,0C14.8,0,8,1.1,2.8,3.2c-1,0.4-1.8,1.3-2,2.2C0.3,7.9,0,10.4,0,13c0,0.9,0,1.9,0.1,2.8
			c1.8-4.3,7.2-9.1,14.6-12.4C18.7,1.6,22.7,0.5,26.2,0.1z"/>
	</g>
	<g id="XMLID_156_">
		<path id="XMLID_157_" style="fill:#262626;" d="M215.5,6.7h-4.4v4.7h3.2v2.4h-3.2v7.8h-2.6V4.3h7V6.7z"/>
		<path id="XMLID_162_" style="fill:#262626;" d="M229.1,4.3v11.7c0,2.6-0.2,3.5-1,4.5c-0.7,0.9-1.8,1.4-3,1.4c-1.2,0-2.3-0.5-3-1.4
			c-0.8-1-1-2-1-4.5V4.3h2.6v11.4c0,1.6,0.1,2.4,0.2,2.8c0.2,0.6,0.7,1,1.3,1c0.6,0,1.1-0.4,1.3-1.1c0.1-0.3,0.1-1.2,0.1-2.6V4.3
			H229.1z"/>
		<path id="XMLID_164_" style="fill:#262626;" d="M242.2,21.6h-6.9V4.3h2.6v14.9h4.3V21.6z"/>
		<path id="XMLID_166_" style="fill:#262626;" d="M254.5,21.6h-6.9V4.3h2.6v14.9h4.3V21.6z"/>
		<path id="XMLID_168_" style="fill:#262626;" d="M267,6.7h-4.5v4.7h3.2v2.4h-3.2v5.3h4.5v2.4H260V4.3h7.1V6.7z"/>
		<path id="XMLID_170_" style="fill:#262626;" d="M275.5,21.6h-2.6V4.3h3.6c3,0,4.3,1.6,4.3,5c0,2.2-0.5,3.4-1.7,4.4l2,7.9h-2.8
			l-1.6-7.2h-1.2V21.6z M276.3,11.9c0.9,0,1.2-0.1,1.5-0.5c0.3-0.4,0.4-1.2,0.4-2.1c0-0.9-0.2-1.8-0.5-2.2c-0.3-0.4-0.6-0.5-1.4-0.5
			h-0.8v5.2H276.3z"/>
		<path id="XMLID_179_" style="fill:#262626;" d="M291.6,21.6H289V6.7h-2.8V4.3h8.2v2.4h-2.8V21.6z"/>
		<path id="XMLID_181_" style="fill:#262626;" d="M308,15.9c0,2.6-0.2,3.5-1,4.5c-0.7,0.9-1.8,1.4-3,1.4c-1.2,0-2.3-0.5-3-1.4
			c-0.8-1-1-2-1-4.5V9.9c0-2.5,0.2-3.5,1-4.5c0.7-0.9,1.8-1.4,3-1.4c1.2,0,2.3,0.5,3,1.4c0.8,1,1,1.9,1,4.5V15.9z M302.4,15.7
			c0,1.6,0.1,2.4,0.2,2.8c0.2,0.6,0.7,1,1.3,1c0.6,0,1.1-0.4,1.3-1.1c0.1-0.3,0.1-1.2,0.1-2.6v-5.5c0-1.7-0.1-2.4-0.2-2.8
			c-0.2-0.6-0.7-1-1.3-1c-0.7,0-1.2,0.4-1.4,1.1c-0.1,0.3-0.1,1.2-0.1,2.6V15.7z"/>
		<path id="XMLID_226_" style="fill:#262626;" d="M320.3,21.6l-3.8-10.7v10.7h-2.4V4.3h2.6l3.6,10.3V4.3h2.4v17.3H320.3z"/>
	</g>
	<rect id="XMLID_175_" x="194.8" style="fill:#231F20;" width="0.7" height="25.9"/>
</g>
<g id="XMLID_367_" style="display:none;">
	<g id="XMLID_371_" style="display:inline;">
		<g id="XMLID_383_">
			<g id="XMLID_423_">
				<path id="XMLID_424_" style="fill:#262626;" d="M65.5,20.3h-3.7L57.7,15h-1.1v5.3h-3V5.8h5.7c2.9,0,5.1,1.3,5.2,4.6
					c0,2.7-1.2,3.9-3.3,4.4L65.5,20.3z M59.3,12.2c1.3,0,2.2-0.5,2.2-1.8c0-1.2-0.9-1.7-2.2-1.6h-2.7v3.4H59.3z"/>
			</g>
			<g id="XMLID_419_">
				<path id="XMLID_420_" style="fill:#262626;" d="M77.9,10.3v5.4c0,6.4-11.9,6.4-11.9,0v-5.4C66.1,3.8,77.9,3.9,77.9,10.3z
					 M69.1,15.7c0,2.4,5.9,2.4,5.9,0v-5.4c0-2.5-5.9-2.4-5.9,0V15.7z"/>
			</g>
			<g id="XMLID_416_">
				<path id="XMLID_417_" style="fill:#262626;" d="M90.6,17.4c-1.2,2-3.3,3-5.2,3c-2.8,0-5.6-1.6-5.6-4.8v-5.2
					c0-3.2,2.8-4.8,5.7-4.8c1.9,0,4.1,1,5,3.1L88.1,10c-1.2-2.4-5.3-1.9-5.3,0.4v5.2c0,2.2,4,2.7,5.3,0.3L90.6,17.4z"/>
			</g>
			<g id="XMLID_413_">
				<path id="XMLID_414_" style="fill:#262626;" d="M94.9,5.8v6l5.2-6h3.7l-6.2,7.1l6.2,7.4H100l-4.5-5.4l-0.6,0.6v4.8h-3V5.8H94.9z
					"/>
			</g>
			<g id="XMLID_410_">
				<path id="XMLID_411_" style="fill:#262626;" d="M114.9,13.6h-8.4v6.6h-1.2V5.8h1.2v6.7h8.4V5.8h1.2v14.5h-1.2V13.6z"/>
			</g>
			<g id="XMLID_406_">
				<path id="XMLID_407_" style="fill:#262626;" d="M123.2,5.8h1.8l5.2,14.5h-1.3l-1.7-4.8h-6.2l-1.7,4.8H118L123.2,5.8z
					 M126.7,14.2l-2.7-7.6l-2.7,7.6H126.7z"/>
			</g>
			<g id="XMLID_402_">
				<path id="XMLID_403_" style="fill:#262626;" d="M142.4,20.3h-1.5l-4.9-6.1h-2.8c0,2,0,4.1,0,6.1h-1.2V5.8h5.5
					c2.7,0,4.8,1.2,4.8,4.2c0,3-2.2,4.1-4.8,4.1h0L142.4,20.3z M137.5,13c2.2,0,3.6-0.7,3.6-3c0-2.3-1.5-3-3.6-3h-4.3v6H137.5z"/>
			</g>
			<g id="XMLID_397_">
				<path id="XMLID_398_" style="fill:#262626;" d="M155.2,16.2c-0.1,3-2.1,4-4.8,4h-5.5V5.7h5.5c2.2,0,4.1,1.2,4.1,3.7
					c0,1.3-0.4,2.5-1.6,3.1C154.6,13.1,155.2,14.5,155.2,16.2z M150.3,12c1.7,0,3-0.7,3-2.5c0-1.8-1.3-2.5-3-2.5H146v5H150.3z
					 M146,13.2V19h4.3c2.1,0,3.6-0.6,3.6-2.8c0-2.3-1.4-3.1-3.6-3H146z"/>
			</g>
			<g id="XMLID_393_">
				<path id="XMLID_394_" style="fill:#262626;" d="M168.8,9.8v6.3c0,5.9-11.5,5.9-11.5,0V9.8C157.3,3.9,168.8,3.9,168.8,9.8z
					 M158.6,16.2c0,4.3,9,4.3,9.1,0V9.8c0-2.3-2.3-3.3-4.6-3.3c-2.2,0-4.5,1-4.5,3.3V16.2z"/>
			</g>
			<g id="XMLID_384_">
				<path id="XMLID_385_" style="fill:#262626;" d="M182,20.3h-1.5l-4.9-6.1h-2.8c0,2,0,4.1,0,6.1h-1.2V5.8h5.5
					c2.7,0,4.8,1.2,4.8,4.2c0,3-2.2,4.1-4.8,4.1h0L182,20.3z M177.2,13c2.2,0,3.6-0.7,3.6-3c0-2.3-1.5-3-3.6-3h-4.3v6H177.2z"/>
			</g>
		</g>
		<path id="XMLID_372_" style="fill:#262626;" d="M32.7,10.7C31.4,7,25,6.2,18.2,8.6c1.5-0.9,3.1-1.7,4.9-2.4
			c8.7-3.7,17.1-3.6,20.1-0.3c0-0.2-0.1-0.3-0.1-0.5c-0.2-1-1-1.8-2-2.2c-2.3-0.9-5-1.7-7.8-2.2c-3.1-0.1-6.8,0.8-10.6,2.5
			c-7.6,3.4-12.4,9.4-10.7,13.3c1.6,3.7,8.4,4.4,15.5,1.6c-1.5,1-3.2,1.9-5,2.6c-5.4,2.4-10.8,3.5-15,3.2c1.8,0.5,3.8,0.8,5.8,1.1
			c2.6,0,5.6-0.6,8.7-1.9C29.2,20.4,34.1,14.7,32.7,10.7z M43.8,11.7c-1.7,4.3-7.2,9.1-14.6,12.2c-2.4,1-4.8,1.7-7,2.2
			c7,0,13.7-1.2,18.8-3.2c1-0.4,1.8-1.3,2-2.3c0.5-2.5,0.8-5,0.8-7.6C43.9,12.6,43.9,12.1,43.8,11.7z M26.2,0.1
			C24.8,0,23.4,0,21.9,0C14.8,0,8,1.1,2.8,3.2c-1,0.4-1.8,1.3-2,2.2C0.3,7.9,0,10.4,0,13c0,0.9,0,1.9,0.1,2.8
			c1.8-4.3,7.2-9.1,14.6-12.4C18.7,1.6,22.7,0.5,26.2,0.1z"/>
	</g>
	<g id="XMLID_120_" style="display:inline;">
		<path id="XMLID_121_" style="fill:#262626;" d="M213.9,10c0-1,0-1.8-0.1-2.2c-0.1-0.8-0.6-1.4-1.4-1.4c-0.7,0-1.1,0.4-1.3,1.1
			c-0.1,0.3-0.1,1.2-0.1,2.6v5.5c0,1.7,0.1,2.4,0.2,2.8c0.2,0.6,0.7,1,1.3,1c0.8,0,1.3-0.6,1.4-1.5c0.1-0.5,0.1-1.7,0.1-2.5h2.6v1
			c0,1.8-0.1,2.5-0.6,3.4c-0.6,1.3-1.9,2-3.5,2c-1.2,0-2.3-0.5-3-1.4c-0.9-1-1-1.9-1-4.6V10c0-2.7,0.2-3.6,1-4.6
			c0.7-0.9,1.8-1.4,3-1.4c1.5,0,2.8,0.7,3.5,1.9c0.5,0.9,0.6,1.5,0.6,3.2V10H213.9z"/>
		<path id="XMLID_123_" style="fill:#262626;" d="M225.1,13.8v7.8h-2.6V4.3h2.6v7.1h2.9V4.3h2.6v17.3H228v-7.8H225.1z"/>
		<path id="XMLID_125_" style="fill:#262626;" d="M239.7,17.8l-0.6,3.8h-2.6l2.8-17.3h3.4l3,17.3H243l-0.6-3.8H239.7z M241,8.4
			l-1,6.9h2L241,8.4z"/>
		<path id="XMLID_128_" style="fill:#262626;" d="M254,21.6h-2.6V4.3h3.6c3,0,4.3,1.6,4.3,5c0,2.2-0.5,3.4-1.7,4.4l2,7.9h-2.8
			l-1.6-7.2H254V21.6z M254.8,11.9c0.9,0,1.2-0.1,1.5-0.5c0.3-0.4,0.4-1.2,0.4-2.1c0-0.9-0.2-1.8-0.5-2.2c-0.3-0.4-0.6-0.5-1.4-0.5
			H254v5.2H254.8z"/>
		<path id="XMLID_131_" style="fill:#262626;" d="M272.4,21.6h-6.9V4.3h2.6v14.9h4.3V21.6z"/>
		<path id="XMLID_133_" style="fill:#262626;" d="M286.1,15.9c0,2.6-0.2,3.5-1,4.5c-0.7,0.9-1.8,1.4-3,1.4c-1.2,0-2.3-0.5-3-1.4
			c-0.8-1-1-2-1-4.5V9.9c0-2.5,0.2-3.5,1-4.5c0.7-0.9,1.8-1.4,3-1.4c1.2,0,2.3,0.5,3,1.4c0.8,1,1,1.9,1,4.5V15.9z M280.5,15.7
			c0,1.6,0.1,2.4,0.2,2.8c0.2,0.6,0.7,1,1.3,1c0.6,0,1.1-0.4,1.3-1.1c0.1-0.3,0.1-1.2,0.1-2.6v-5.5c0-1.7-0.1-2.4-0.2-2.8
			c-0.2-0.6-0.7-1-1.3-1c-0.7,0-1.2,0.4-1.4,1.1c-0.1,0.3-0.1,1.2-0.1,2.6V15.7z"/>
		<path id="XMLID_136_" style="fill:#262626;" d="M296.9,21.6h-2.6V6.7h-2.8V4.3h8.2v2.4h-2.8V21.6z"/>
		<path id="XMLID_138_" style="fill:#262626;" d="M310.2,21.6h-2.6V6.7h-2.8V4.3h8.2v2.4h-2.8V21.6z"/>
		<path id="XMLID_154_" style="fill:#262626;" d="M325.7,6.7h-4.5v4.7h3.2v2.4h-3.2v5.3h4.5v2.4h-7.1V4.3h7.1V6.7z"/>
	</g>
	<rect id="XMLID_174_" x="194.8" style="display:inline;fill:#231F20;" width="0.7" height="25.9"/>
</g>
<g id="XMLID_434_" style="display:none;">
	<g id="XMLID_438_" style="display:inline;">
		<g id="XMLID_450_">
			<g id="XMLID_490_">
				<path id="XMLID_491_" style="fill:#262626;" d="M65.5,20.3h-3.7L57.7,15h-1.1v5.3h-3V5.8h5.7c2.9,0,5.1,1.3,5.2,4.6
					c0,2.7-1.2,3.9-3.3,4.4L65.5,20.3z M59.3,12.2c1.3,0,2.2-0.5,2.2-1.8c0-1.2-0.9-1.7-2.2-1.6h-2.7v3.4H59.3z"/>
			</g>
			<g id="XMLID_486_">
				<path id="XMLID_487_" style="fill:#262626;" d="M77.9,10.3v5.4c0,6.4-11.9,6.4-11.9,0v-5.4C66.1,3.8,77.9,3.9,77.9,10.3z
					 M69.1,15.7c0,2.4,5.9,2.4,5.9,0v-5.4c0-2.5-5.9-2.4-5.9,0V15.7z"/>
			</g>
			<g id="XMLID_483_">
				<path id="XMLID_484_" style="fill:#262626;" d="M90.6,17.4c-1.2,2-3.3,3-5.2,3c-2.8,0-5.6-1.6-5.6-4.8v-5.2
					c0-3.2,2.8-4.8,5.7-4.8c1.9,0,4.1,1,5,3.1L88.1,10c-1.2-2.4-5.3-1.9-5.3,0.4v5.2c0,2.2,4,2.7,5.3,0.3L90.6,17.4z"/>
			</g>
			<g id="XMLID_480_">
				<path id="XMLID_481_" style="fill:#262626;" d="M94.9,5.8v6l5.2-6h3.7l-6.2,7.1l6.2,7.4H100l-4.5-5.4l-0.6,0.6v4.8h-3V5.8H94.9z
					"/>
			</g>
			<g id="XMLID_477_">
				<path id="XMLID_478_" style="fill:#262626;" d="M114.9,13.6h-8.4v6.6h-1.2V5.8h1.2v6.7h8.4V5.8h1.2v14.5h-1.2V13.6z"/>
			</g>
			<g id="XMLID_473_">
				<path id="XMLID_474_" style="fill:#262626;" d="M123.2,5.8h1.8l5.2,14.5h-1.3l-1.7-4.8h-6.2l-1.7,4.8H118L123.2,5.8z
					 M126.7,14.2l-2.7-7.6l-2.7,7.6H126.7z"/>
			</g>
			<g id="XMLID_469_">
				<path id="XMLID_470_" style="fill:#262626;" d="M142.4,20.3h-1.5l-4.9-6.1h-2.8c0,2,0,4.1,0,6.1h-1.2V5.8h5.5
					c2.7,0,4.8,1.2,4.8,4.2c0,3-2.2,4.1-4.8,4.1h0L142.4,20.3z M137.5,13c2.2,0,3.6-0.7,3.6-3c0-2.3-1.5-3-3.6-3h-4.3v6H137.5z"/>
			</g>
			<g id="XMLID_464_">
				<path id="XMLID_465_" style="fill:#262626;" d="M155.2,16.2c-0.1,3-2.1,4-4.8,4h-5.5V5.7h5.5c2.2,0,4.1,1.2,4.1,3.7
					c0,1.3-0.4,2.5-1.6,3.1C154.6,13.1,155.2,14.5,155.2,16.2z M150.3,12c1.7,0,3-0.7,3-2.5c0-1.8-1.3-2.5-3-2.5H146v5H150.3z
					 M146,13.2V19h4.3c2.1,0,3.6-0.6,3.6-2.8c0-2.3-1.4-3.1-3.6-3H146z"/>
			</g>
			<g id="XMLID_460_">
				<path id="XMLID_461_" style="fill:#262626;" d="M168.8,9.8v6.3c0,5.9-11.5,5.9-11.5,0V9.8C157.3,3.9,168.8,3.9,168.8,9.8z
					 M158.6,16.2c0,4.3,9,4.3,9.1,0V9.8c0-2.3-2.3-3.3-4.6-3.3c-2.2,0-4.5,1-4.5,3.3V16.2z"/>
			</g>
			<g id="XMLID_451_">
				<path id="XMLID_452_" style="fill:#262626;" d="M182,20.3h-1.5l-4.9-6.1h-2.8c0,2,0,4.1,0,6.1h-1.2V5.8h5.5
					c2.7,0,4.8,1.2,4.8,4.2c0,3-2.2,4.1-4.8,4.1h0L182,20.3z M177.2,13c2.2,0,3.6-0.7,3.6-3c0-2.3-1.5-3-3.6-3h-4.3v6H177.2z"/>
			</g>
		</g>
		<path id="XMLID_439_" style="fill:#262626;" d="M32.7,10.7C31.4,7,25,6.2,18.2,8.6c1.5-0.9,3.1-1.7,4.9-2.4
			c8.7-3.7,17.1-3.6,20.1-0.3c0-0.2-0.1-0.3-0.1-0.5c-0.2-1-1-1.8-2-2.2c-2.3-0.9-5-1.7-7.8-2.2c-3.1-0.1-6.8,0.8-10.6,2.5
			c-7.6,3.4-12.4,9.4-10.7,13.3c1.6,3.7,8.4,4.4,15.5,1.6c-1.5,1-3.2,1.9-5,2.6c-5.4,2.4-10.8,3.5-15,3.2c1.8,0.5,3.8,0.8,5.8,1.1
			c2.6,0,5.6-0.6,8.7-1.9C29.2,20.4,34.1,14.7,32.7,10.7z M43.8,11.7c-1.7,4.3-7.2,9.1-14.6,12.2c-2.4,1-4.8,1.7-7,2.2
			c7,0,13.7-1.2,18.8-3.2c1-0.4,1.8-1.3,2-2.3c0.5-2.5,0.8-5,0.8-7.6C43.9,12.6,43.9,12.1,43.8,11.7z M26.2,0.1
			C24.8,0,23.4,0,21.9,0C14.8,0,8,1.1,2.8,3.2c-1,0.4-1.8,1.3-2,2.2C0.3,7.9,0,10.4,0,13c0,0.9,0,1.9,0.1,2.8
			c1.8-4.3,7.2-9.1,14.6-12.4C18.7,1.6,22.7,0.5,26.2,0.1z"/>
	</g>
	<g id="XMLID_14_" style="display:inline;">
		<path id="XMLID_15_" style="fill:#262626;" d="M211.1,13.8v7.8h-2.6V4.3h2.6v7.1h2.9V4.3h2.6v17.3H214v-7.8H211.1z"/>
		<path id="XMLID_17_" style="fill:#262626;" d="M230.9,4.3v11.7c0,2.6-0.2,3.5-1,4.5c-0.7,0.9-1.8,1.4-3,1.4c-1.2,0-2.3-0.5-3-1.4
			c-0.8-1-1-2-1-4.5V4.3h2.6v11.4c0,1.6,0.1,2.4,0.2,2.8c0.2,0.6,0.7,1,1.3,1c0.6,0,1.1-0.4,1.3-1.1c0.1-0.3,0.1-1.2,0.1-2.6V4.3
			H230.9z"/>
		<path id="XMLID_19_" style="fill:#262626;" d="M243.3,21.6l-3.8-10.7v10.7h-2.4V4.3h2.6l3.6,10.3V4.3h2.4v17.3H243.3z"/>
		<path id="XMLID_21_" style="fill:#262626;" d="M256.7,21.6h-2.6V6.7h-2.8V4.3h8.2v2.4h-2.8V21.6z"/>
		<path id="XMLID_35_" style="fill:#262626;" d="M267.8,21.6h-2.6V4.3h2.6V21.6z"/>
		<path id="XMLID_37_" style="fill:#262626;" d="M280.2,21.6l-3.8-10.7v10.7H274V4.3h2.6l3.6,10.3V4.3h2.4v17.3H280.2z"/>
		<path id="XMLID_39_" style="fill:#262626;" d="M296.9,21.6h-1.3l-0.5-1.4c-0.7,1.2-1.5,1.6-2.7,1.6c-1.2,0-2.3-0.5-2.9-1.5
			c-0.6-1-0.8-2.2-0.8-4.3V10c0-2.7,0.2-3.6,1-4.6c0.7-0.9,1.8-1.4,3-1.4c1.9,0,3.4,1.1,3.9,2.9c0.2,0.6,0.2,0.9,0.2,3h-2.6
			c0-1,0-1.7-0.1-2.1c-0.1-0.8-0.6-1.4-1.4-1.4c-0.6,0-1.1,0.4-1.3,1.1c-0.1,0.3-0.1,1.2-0.1,2.6v5.5c0,1.3,0.1,2.4,0.2,2.8
			c0.2,0.6,0.7,1,1.3,1c0.6,0,1.2-0.4,1.3-1.1c0.1-0.4,0.1-1.2,0.1-2.6V15h-1.6v-2.2h4.2V21.6z"/>
		<path id="XMLID_75_" style="fill:#262626;" d="M307.7,21.6h-2.6V6.7h-2.8V4.3h8.2v2.4h-2.8V21.6z"/>
		<path id="XMLID_87_" style="fill:#262626;" d="M324.1,15.9c0,2.6-0.2,3.5-1,4.5c-0.7,0.9-1.8,1.4-3,1.4c-1.2,0-2.3-0.5-3-1.4
			c-0.8-1-1-2-1-4.5V9.9c0-2.5,0.2-3.5,1-4.5c0.7-0.9,1.8-1.4,3-1.4c1.2,0,2.3,0.5,3,1.4c0.8,1,1,1.9,1,4.5V15.9z M318.6,15.7
			c0,1.6,0.1,2.4,0.2,2.8c0.2,0.6,0.7,1,1.3,1c0.6,0,1.1-0.4,1.3-1.1c0.1-0.3,0.1-1.2,0.1-2.6v-5.5c0-1.7-0.1-2.4-0.2-2.8
			c-0.2-0.6-0.7-1-1.3-1c-0.7,0-1.2,0.4-1.4,1.1c-0.1,0.3-0.1,1.2-0.1,2.6V15.7z"/>
		<path id="XMLID_105_" style="fill:#262626;" d="M336.4,21.6l-3.8-10.7v10.7h-2.4V4.3h2.6l3.6,10.3V4.3h2.4v17.3H336.4z"/>
		<path id="XMLID_107_" style="fill:#262626;" d="M353.6,4.3h3.6c2.9,0,4.3,1.5,4.3,4.5c0,1.8-0.5,3-1.8,3.9c1.5,0.8,2.1,2,2.1,4.3
			c0,1.7-0.4,3-1.3,3.8c-0.7,0.6-1.4,0.9-3.1,0.9h-3.8V4.3z M356.7,11.4c0.8,0,1.2-0.1,1.5-0.4c0.5-0.4,0.7-1.1,0.7-2.1
			c0-1.5-0.6-2.2-1.8-2.2h-1v4.8H356.7z M357.1,19.2c1.5,0,2.1-0.7,2.1-2.5c0-1.1-0.3-2-0.8-2.4c-0.3-0.3-0.8-0.4-1.6-0.4h-0.6v5.3
			H357.1z"/>
		<path id="XMLID_111_" style="fill:#262626;" d="M374.9,6.7h-4.5v4.7h3.2v2.4h-3.2v5.3h4.5v2.4h-7.1V4.3h7.1V6.7z"/>
		<path id="XMLID_113_" style="fill:#262626;" d="M383.8,17.8l-0.6,3.8h-2.6l2.8-17.3h3.4l3,17.3h-2.7l-0.6-3.8H383.8z M385.2,8.4
			l-1,6.9h2L385.2,8.4z"/>
		<path id="XMLID_116_" style="fill:#262626;" d="M400.9,10c0-1,0-1.8-0.1-2.2c-0.1-0.8-0.6-1.4-1.4-1.4c-0.7,0-1.1,0.4-1.3,1.1
			c-0.1,0.3-0.1,1.2-0.1,2.6v5.5c0,1.7,0.1,2.4,0.2,2.8c0.2,0.6,0.7,1,1.3,1c0.8,0,1.3-0.6,1.4-1.5c0.1-0.5,0.1-1.7,0.1-2.5h2.6v1
			c0,1.8-0.1,2.5-0.6,3.4c-0.6,1.3-1.9,2-3.5,2c-1.2,0-2.3-0.5-3-1.4c-0.9-1-1-1.9-1-4.6V10c0-2.7,0.2-3.6,1-4.6
			c0.7-0.9,1.8-1.4,3-1.4c1.5,0,2.8,0.7,3.5,1.9c0.5,0.9,0.6,1.5,0.6,3.2V10H400.9z"/>
		<path id="XMLID_118_" style="fill:#262626;" d="M412.1,13.8v7.8h-2.6V4.3h2.6v7.1h2.9V4.3h2.6v17.3H415v-7.8H412.1z"/>
	</g>
	<rect id="XMLID_25_" x="194.8" y="0.1" style="display:inline;fill:#231F20;" width="0.7" height="25.7"/>
</g>
</svg>
