<?xml version="1.0" encoding="utf-8"?>
<!-- Generator: Adobe Illustrator 19.0.0, SVG Export Plug-In . SVG Version: 6.00 Build 0)  -->
<svg version="1.1" xmlns="http://www.w3.org/2000/svg" xmlns:xlink="http://www.w3.org/1999/xlink" x="0px" y="0px"
	 viewBox="0 0 330 68" style="enable-background:new 0 0 330 68;" xml:space="preserve">
<g id="Layer_2" style="display:none;">
	<rect id="XMLID_63_" x="-170.3" y="-127.2" style="display:inline;fill:#B3B3B3;" width="771.3" height="325.3"/>
</g>
<g id="Layer_1">
	<g id="XMLID_21_" style="display:none;">
		<g id="XMLID_655_" style="display:inline;">
			<path id="XMLID_656_" style="fill:#FFFFFF;" d="M105.3,51.4v-1.9c0-2.1-0.9-2.9-2-2.9c-1.7,0-2.2,0.9-2.2,2.7v12.3
				c0,1.8,0.5,2.7,2.2,2.7c1.5,0,2-0.9,2-2.5V59h4.2v2.8c0,3.4-2,6.2-6.2,6.2c-4.4,0-6.4-2.8-6.4-6.2V49.2c0-3.4,2-6.2,6.4-6.2
				c4.2,0,6.2,3,6.2,6.7v1.8H105.3z"/>
			<path id="XMLID_658_" style="fill:#FFFFFF;" d="M118.8,49.2c0-3.4,2-6.2,6.4-6.2c4.4,0,6.4,2.8,6.4,6.2v12.5c0,3.4-2,6.2-6.4,6.2
				c-4.4,0-6.4-2.8-6.4-6.2V49.2z M122.9,61.7c0,1.8,0.5,2.7,2.2,2.7s2.2-0.9,2.2-2.7V49.3c0-1.8-0.5-2.7-2.2-2.7s-2.2,0.9-2.2,2.7
				V61.7z"/>
			<path id="XMLID_661_" style="fill:#FFFFFF;" d="M148.3,49.3c-0.2-2.1-1.3-2.7-2.2-2.7c-1.3,0-2.1,0.9-2.1,2.4
				c0,4.1,8.5,6.1,8.5,12.7c0,4-2.7,6.2-6.6,6.2c-3.9,0-6.1-3.1-6.3-6.7l4-0.6c0.2,2.5,1.1,3.7,2.5,3.7c1.4,0,2.4-0.8,2.4-2.2
				c0-4.8-8.5-6.1-8.5-13.1c0-3.9,2.4-6.1,6.5-6.1c3.4,0,5.4,2.5,5.8,5.9L148.3,49.3z"/>
			<path id="XMLID_663_" style="fill:#FFFFFF;" d="M163.1,47h-4v-3.6h12.3V47h-4v20.7h-4.2V47z"/>
			<path id="XMLID_665_" style="fill:#FFFFFF;" d="M180.7,67.7h-4l4.5-24.3h5.2l4.5,24.3h-4l-0.7-5.4h-4.6L180.7,67.7z M182,58.6
				h3.4l-1.7-10.4h-0.1L182,58.6z"/>
			<path id="XMLID_668_" style="fill:#FFFFFF;" d="M227.5,43.3v24.3h-3.6v-19h-0.1l-3.8,19h-2l-3.8-19h-0.1v19h-3.6V43.3h5.5l3,14.2
				h0.1l3-14.2H227.5z"/>
			<path id="XMLID_670_" style="fill:#FFFFFF;" d="M236.4,67.7V43.3h11.2V47h-7v6.3h5.4v3.6h-5.4V64h7.5v3.6H236.4z"/>
			<path id="XMLID_672_" style="fill:#FFFFFF;" d="M264.1,49.3c-0.2-2.1-1.3-2.7-2.2-2.7c-1.3,0-2.1,0.9-2.1,2.4
				c0,4.1,8.5,6.1,8.5,12.7c0,4-2.7,6.2-6.6,6.2c-3.9,0-6.1-3.1-6.3-6.7l4-0.6c0.2,2.5,1.1,3.7,2.5,3.7c1.4,0,2.4-0.8,2.4-2.2
				c0-4.8-8.5-6.1-8.5-13.1c0-3.9,2.4-6.1,6.5-6.1c3.4,0,5.4,2.5,5.8,5.9L264.1,49.3z"/>
			<path id="XMLID_674_" style="fill:#FFFFFF;" d="M278.9,67.7h-4l4.5-24.3h5.2l4.5,24.3h-4l-0.7-5.4h-4.6L278.9,67.7z M280.2,58.6
				h3.4L282,48.2h-0.1L280.2,58.6z"/>
		</g>
		<g id="XMLID_26_" style="display:inline;">
			<g id="XMLID_138_">
				<path id="XMLID_139_" style="fill:#FFFFFF;" d="M118.3,26.8h-6.7l-7.4-9.6h-1.9v9.6h-5.5V0.7h10.3c5.2,0,9.2,2.4,9.3,8.3
					c0,4.8-2.2,7.1-5.9,7.9L118.3,26.8z M107.1,12.3c2.4,0,3.9-1,3.9-3.3c0-2.2-1.6-3-3.9-2.9h-4.8v6.2H107.1z"/>
			</g>
			<g id="XMLID_134_">
				<path id="XMLID_135_" style="fill:#FFFFFF;" d="M140.7,8.8v9.8c0,11.6-21.4,11.6-21.4,0V8.8C119.3-2.8,140.7-2.8,140.7,8.8z
					 M124.7,18.7c0,4.4,10.6,4.4,10.6,0V8.8c0-4.5-10.6-4.4-10.6,0V18.7z"/>
			</g>
			<g id="XMLID_131_">
				<path id="XMLID_132_" style="fill:#FFFFFF;" d="M163.6,21.6c-2.3,3.7-5.9,5.5-9.4,5.5c-5.1,0-10.2-2.9-10.2-8.7V9.1
					c0-5.7,5.1-8.7,10.3-8.7c3.5,0,7.3,1.8,9.1,5.6L159,8.4c-2.3-4.3-9.6-3.4-9.6,0.7v9.3c0,4,7.3,4.9,9.5,0.6L163.6,21.6z"/>
			</g>
			<g id="XMLID_57_">
				<path id="XMLID_58_" style="fill:#FFFFFF;" d="M171.4,0.7v10.9l9.3-10.9h6.6l-11.2,12.8l11.2,13.3h-6.7l-8.2-9.7l-1,1v8.7h-5.4
					V0.7H171.4z"/>
			</g>
			<g id="XMLID_54_">
				<path id="XMLID_55_" style="fill:#FFFFFF;" d="M207.4,14.9h-15.2v12H190V0.7h2.2v12h15.2v-12h2.2v26.1h-2.2V14.9z"/>
			</g>
			<g id="XMLID_50_">
				<path id="XMLID_51_" style="fill:#FFFFFF;" d="M222.3,0.7h3.2l9.5,26.1h-2.3l-3.1-8.7h-11.2l-3.1,8.7h-2.3L222.3,0.7z
					 M228.7,15.9l-4.8-13.6l-4.8,13.6H228.7z"/>
			</g>
			<g id="XMLID_46_">
				<path id="XMLID_47_" style="fill:#FFFFFF;" d="M256.9,26.8h-2.6l-8.8-11.1h-5c0,3.7,0,7.5,0,11.1h-2.2V0.7h9.9
					c4.9,0,8.6,2.2,8.8,7.6c0,5.4-4,7.5-8.7,7.5h-0.1L256.9,26.8z M248.2,13.8c4,0,6.5-1.3,6.5-5.5c0-4.1-2.7-5.5-6.5-5.4h-7.7v10.9
					H248.2z"/>
			</g>
			<g id="XMLID_41_">
				<path id="XMLID_42_" style="fill:#FFFFFF;" d="M280.1,19.6c-0.1,5.4-3.8,7.3-8.8,7.3h-9.9V0.6h9.9c4.1,0,7.5,2.2,7.5,6.6
					c0,2.3-0.7,4.4-2.8,5.6C279.1,14,280.1,16.4,280.1,19.6z M271.3,11.9c3.1,0,5.3-1.3,5.3-4.6c0-3.3-2.4-4.5-5.3-4.5h-7.8v9H271.3
					z M263.6,14.1v10.6h7.8c3.8,0.1,6.5-1,6.5-5.1c0-4.1-2.5-5.5-6.5-5.5H263.6z"/>
			</g>
			<g id="XMLID_32_">
				<path id="XMLID_33_" style="fill:#FFFFFF;" d="M304.7,8v11.4c0,10.7-20.7,10.7-20.7,0V8C284-2.7,304.7-2.7,304.7,8z M286.2,19.4
					c0,7.8,16.3,7.8,16.4,0V8c0-4.1-4.1-5.9-8.2-5.9c-4.1,0-8.1,1.8-8.1,5.9V19.4z"/>
			</g>
			<g id="XMLID_27_">
				<path id="XMLID_28_" style="fill:#FFFFFF;" d="M328.5,26.8h-2.6l-8.8-11.1h-5c0,3.7,0,7.5,0,11.1h-2.2V0.7h9.9
					c4.9,0,8.6,2.2,8.8,7.6c0,5.4-4,7.5-8.7,7.5h-0.1L328.5,26.8z M319.8,13.8c4,0,6.5-1.3,6.5-5.5c0-4.1-2.7-5.5-6.5-5.4h-7.7v10.9
					H319.8z"/>
			</g>
		</g>
		<path id="XMLID_22_" style="display:inline;fill:#FFFFFF;" d="M59,31c-2.4-6.7-13.8-8.3-26.2-3.8c2.7-1.6,5.7-3.1,8.8-4.4
			c15.7-6.6,30.8-6.6,36.3-0.5c-0.1-0.3-0.1-0.6-0.2-0.9c-0.4-1.8-1.7-3.3-3.6-4.1c-4.2-1.7-9-3-14.2-4c-5.5-0.2-12.3,1.4-19.2,4.4
			C26.9,24,18.3,34.7,21.4,41.9c2.9,6.7,15.1,7.9,28,2.9c-2.8,1.7-5.8,3.3-9.1,4.8c-9.8,4.4-19.5,6.3-27,5.8c3.3,0.8,6.8,1.5,10.4,2
			c4.7,0,10.2-1.1,15.7-3.5C52.8,48.5,61.5,38.1,59,31z M79.1,32.7c-3,7.7-13,16.4-26.3,22c-4.3,1.8-8.6,3.1-12.6,3.9
			c12.7-0.1,24.7-2.1,33.9-5.7c1.9-0.8,3.2-2.3,3.6-4.1c1-4.4,1.5-9,1.5-13.7C79.2,34.3,79.1,33.5,79.1,32.7z M47.2,11.9
			c-2.5-0.2-5-0.2-7.6-0.2c-12.9,0-25.2,2-34.5,5.8c-1.9,0.7-3.2,2.3-3.6,4.1c-1,4.4-1.5,9-1.5,13.7c0,1.7,0.1,3.3,0.2,5
			c3.2-7.7,13-16.4,26.3-22.3C33.8,14.5,40.9,12.6,47.2,11.9z"/>
	</g>
	<g id="XMLID_157_">
		<g id="XMLID_634_">
			<path id="XMLID_635_" style="fill:#FFFFFF;" d="M96.9,67.7V43.3h11.7V47H101v6.3h5.6v3.6H101v10.8H96.9z"/>
			<path id="XMLID_637_" style="fill:#FFFFFF;" d="M116.9,43.3h4.2v18.4c0,1.8,0.7,2.7,2.2,2.7c1.5,0,2.2-0.9,2.2-2.7V43.3h4.2v18.2
				c0,4.2-2.4,6.5-6.4,6.5c-4,0-6.4-2.3-6.4-6.5V43.3z"/>
			<path id="XMLID_639_" style="fill:#FFFFFF;" d="M138.6,67.7V43.3h4.2V64h6.6v3.6H138.6z"/>
			<path id="XMLID_641_" style="fill:#FFFFFF;" d="M156.7,67.7V43.3h4.2V64h6.6v3.6H156.7z"/>
			<path id="XMLID_643_" style="fill:#FFFFFF;" d="M175.1,67.7V43.3h11.2V47h-7v6.3h5.4v3.6h-5.4V64h7.5v3.6H175.1z"/>
			<path id="XMLID_645_" style="fill:#FFFFFF;" d="M199.3,67.7h-4.2V43.3h5.9c4.7,0,7.1,2,7.1,7.2c0,3.9-1.5,5.5-2.9,6.1l3.5,11
				h-4.2l-3-10.1c-0.5,0.1-1.4,0.1-2.2,0.1V67.7z M199.3,54.2h1.5c2.3,0,3.1-0.8,3.1-3.7s-0.8-3.7-3.1-3.7h-1.5V54.2z"/>
			<path id="XMLID_648_" style="fill:#FFFFFF;" d="M219.4,47h-4v-3.6h12.3V47h-4v20.7h-4.2V47z"/>
			<path id="XMLID_650_" style="fill:#FFFFFF;" d="M235.2,49.2c0-3.4,2-6.2,6.4-6.2s6.4,2.8,6.4,6.2v12.5c0,3.4-2,6.2-6.4,6.2
				s-6.4-2.8-6.4-6.2V49.2z M239.4,61.7c0,1.8,0.5,2.7,2.2,2.7c1.7,0,2.2-0.9,2.2-2.7V49.3c0-1.8-0.5-2.7-2.2-2.7
				c-1.7,0-2.2,0.9-2.2,2.7V61.7z"/>
			<path id="XMLID_653_" style="fill:#FFFFFF;" d="M257.1,67.7V43.3h3.9l5.1,13.9h0.1V43.3h3.8v24.3h-3.6l-5.3-15.2h-0.1v15.2H257.1
				z"/>
		</g>
		<g id="XMLID_168_">
			<g id="XMLID_203_">
				<path id="XMLID_204_" style="fill:#FFFFFF;" d="M118.3,26.8h-6.7l-7.4-9.6h-1.9v9.6h-5.5V0.7h10.3c5.2,0,9.2,2.4,9.3,8.3
					c0,4.8-2.2,7.1-5.9,7.9L118.3,26.8z M107.1,12.3c2.4,0,3.9-1,3.9-3.3c0-2.2-1.6-3-3.9-2.9h-4.8v6.2H107.1z"/>
			</g>
			<g id="XMLID_199_">
				<path id="XMLID_200_" style="fill:#FFFFFF;" d="M140.7,8.8v9.8c0,11.6-21.4,11.6-21.4,0V8.8C119.3-2.8,140.7-2.8,140.7,8.8z
					 M124.7,18.7c0,4.4,10.6,4.4,10.6,0V8.8c0-4.5-10.6-4.4-10.6,0V18.7z"/>
			</g>
			<g id="XMLID_196_">
				<path id="XMLID_197_" style="fill:#FFFFFF;" d="M163.6,21.6c-2.3,3.7-5.9,5.5-9.4,5.5c-5.1,0-10.2-2.9-10.2-8.7V9.1
					c0-5.7,5.1-8.7,10.3-8.7c3.5,0,7.3,1.8,9.1,5.6L159,8.4c-2.3-4.3-9.6-3.4-9.6,0.7v9.3c0,4,7.3,4.9,9.5,0.6L163.6,21.6z"/>
			</g>
			<g id="XMLID_193_">
				<path id="XMLID_194_" style="fill:#FFFFFF;" d="M171.4,0.7v10.9l9.3-10.9h6.6l-11.2,12.8l11.2,13.3h-6.7l-8.2-9.7l-1,1v8.7h-5.4
					V0.7H171.4z"/>
			</g>
			<g id="XMLID_190_">
				<path id="XMLID_191_" style="fill:#FFFFFF;" d="M207.4,14.9h-15.2v12H190V0.7h2.2v12h15.2v-12h2.2v26.1h-2.2V14.9z"/>
			</g>
			<g id="XMLID_186_">
				<path id="XMLID_187_" style="fill:#FFFFFF;" d="M222.3,0.7h3.2l9.5,26.1h-2.3l-3.1-8.7h-11.2l-3.1,8.7h-2.3L222.3,0.7z
					 M228.7,15.9l-4.8-13.6l-4.8,13.6H228.7z"/>
			</g>
			<g id="XMLID_182_">
				<path id="XMLID_183_" style="fill:#FFFFFF;" d="M256.9,26.8h-2.6l-8.8-11.1h-5c0,3.7,0,7.5,0,11.1h-2.2V0.7h9.9
					c4.9,0,8.6,2.2,8.8,7.6c0,5.4-4,7.5-8.7,7.5h-0.1L256.9,26.8z M248.2,13.8c4,0,6.5-1.3,6.5-5.5c0-4.1-2.7-5.5-6.5-5.4h-7.7v10.9
					H248.2z"/>
			</g>
			<g id="XMLID_177_">
				<path id="XMLID_178_" style="fill:#FFFFFF;" d="M280.1,19.6c-0.1,5.4-3.8,7.3-8.8,7.3h-9.9V0.6h9.9c4.1,0,7.5,2.2,7.5,6.6
					c0,2.3-0.7,4.4-2.8,5.6C279.1,14,280.1,16.4,280.1,19.6z M271.3,11.9c3.1,0,5.3-1.3,5.3-4.6c0-3.3-2.4-4.5-5.3-4.5h-7.8v9H271.3
					z M263.6,14.1v10.6h7.8c3.8,0.1,6.5-1,6.5-5.1c0-4.1-2.5-5.5-6.5-5.5H263.6z"/>
			</g>
			<g id="XMLID_173_">
				<path id="XMLID_174_" style="fill:#FFFFFF;" d="M304.7,8v11.4c0,10.7-20.7,10.7-20.7,0V8C284-2.7,304.7-2.7,304.7,8z
					 M286.2,19.4c0,7.8,16.3,7.8,16.4,0V8c0-4.1-4.1-5.9-8.2-5.9c-4.1,0-8.1,1.8-8.1,5.9V19.4z"/>
			</g>
			<g id="XMLID_169_">
				<path id="XMLID_170_" style="fill:#FFFFFF;" d="M328.5,26.8h-2.6l-8.8-11.1h-5c0,3.7,0,7.5,0,11.1h-2.2V0.7h9.9
					c4.9,0,8.6,2.2,8.8,7.6c0,5.4-4,7.5-8.7,7.5h-0.1L328.5,26.8z M319.8,13.8c4,0,6.5-1.3,6.5-5.5c0-4.1-2.7-5.5-6.5-5.4h-7.7v10.9
					H319.8z"/>
			</g>
		</g>
		<path id="XMLID_158_" style="fill:#FFFFFF;" d="M59,31c-2.4-6.7-13.8-8.3-26.2-3.8c2.7-1.6,5.7-3.1,8.8-4.4
			c15.7-6.6,30.8-6.6,36.3-0.5c-0.1-0.3-0.1-0.6-0.2-0.9c-0.4-1.8-1.7-3.3-3.6-4.1c-4.2-1.7-9-3-14.2-4c-5.5-0.2-12.3,1.4-19.2,4.4
			C26.9,24,18.3,34.7,21.4,41.9c2.9,6.7,15.1,7.9,28,2.9c-2.8,1.7-5.8,3.3-9.1,4.8c-9.8,4.4-19.5,6.3-27,5.8c3.3,0.8,6.8,1.5,10.4,2
			c4.7,0,10.2-1.1,15.7-3.5C52.8,48.5,61.5,38.1,59,31z M79.1,32.7c-3,7.7-13,16.4-26.3,22c-4.3,1.8-8.6,3.1-12.6,3.9
			c12.7-0.1,24.7-2.1,33.9-5.7c1.9-0.8,3.2-2.3,3.6-4.1c1-4.4,1.5-9,1.5-13.7C79.2,34.3,79.1,33.5,79.1,32.7z M47.2,11.9
			c-2.5-0.2-5-0.2-7.6-0.2c-12.9,0-25.2,2-34.5,5.8c-1.9,0.7-3.2,2.3-3.6,4.1c-1,4.4-1.5,9-1.5,13.7c0,1.7,0.1,3.3,0.2,5
			c3.2-7.7,13-16.4,26.3-22.3C33.8,14.5,40.9,12.6,47.2,11.9z"/>
	</g>
	<g id="XMLID_216_" style="display:none;">
		<g id="XMLID_618_" style="display:inline;">
			<path id="XMLID_619_" style="fill:#FFFFFF;" d="M96.9,49.2c0-3.4,2-6.2,6.4-6.2s6.4,2.8,6.4,6.2v12.5c0,3.4-2,6.2-6.4,6.2
				s-6.4-2.8-6.4-6.2V49.2z M101,61.7c0,1.8,0.5,2.7,2.2,2.7s2.2-0.9,2.2-2.7V49.3c0-1.8-0.5-2.7-2.2-2.7s-2.2,0.9-2.2,2.7V61.7z"/>
			<path id="XMLID_622_" style="fill:#FFFFFF;" d="M122.9,67.7h-4.2V43.3h5.9c4.7,0,7.1,2,7.1,7.2c0,3.9-1.5,5.5-2.9,6.1l3.5,11
				h-4.2l-3-10.1c-0.5,0.1-1.4,0.1-2.2,0.1V67.7z M122.9,54.2h1.5c2.3,0,3.1-0.8,3.1-3.7s-0.8-3.7-3.1-3.7h-1.5V54.2z"/>
			<path id="XMLID_625_" style="fill:#FFFFFF;" d="M143.1,67.7h-4l4.5-24.3h5.2l4.5,24.3h-4l-0.7-5.4h-4.6L143.1,67.7z M144.4,58.6
				h3.4l-1.7-10.4h-0.1L144.4,58.6z"/>
			<path id="XMLID_628_" style="fill:#FFFFFF;" d="M160.7,67.7V43.3h3.9l5.1,13.9h0.1V43.3h3.8v24.3h-3.6l-5.3-15.2h-0.1v15.2H160.7
				z"/>
			<path id="XMLID_630_" style="fill:#FFFFFF;" d="M188.3,55.3h6.8v12.3h-2l-0.8-1.8c-1.2,1.5-2.3,2.2-4.2,2.2
				c-3.3,0-5.6-2.4-5.6-6.2V49.2c0-3.4,2-6.2,6.1-6.2c4.2,0,6.3,3,6.3,6.7v1.6h-4c0-3.6-0.7-4.6-2.4-4.6c-1,0-1.9,0.6-1.9,2.7v12.5
				c0,1.6,0.5,2.6,2,2.6c1.7,0,2.3-0.9,2.3-3.4v-2.4h-2.7V55.3z"/>
			<path id="XMLID_632_" style="fill:#FFFFFF;" d="M204.5,67.7V43.3h11.2V47h-7v6.3h5.4v3.6h-5.4V64h7.5v3.6H204.5z"/>
		</g>
		<g id="XMLID_227_" style="display:inline;">
			<g id="XMLID_268_">
				<path id="XMLID_269_" style="fill:#FFFFFF;" d="M118.3,26.8h-6.7l-7.4-9.6h-1.9v9.6h-5.5V0.7h10.3c5.2,0,9.2,2.4,9.3,8.3
					c0,4.8-2.2,7.1-5.9,7.9L118.3,26.8z M107.1,12.3c2.4,0,3.9-1,3.9-3.3c0-2.2-1.6-3-3.9-2.9h-4.8v6.2H107.1z"/>
			</g>
			<g id="XMLID_264_">
				<path id="XMLID_265_" style="fill:#FFFFFF;" d="M140.7,8.8v9.8c0,11.6-21.4,11.6-21.4,0V8.8C119.3-2.8,140.7-2.8,140.7,8.8z
					 M124.7,18.7c0,4.4,10.6,4.4,10.6,0V8.8c0-4.5-10.6-4.4-10.6,0V18.7z"/>
			</g>
			<g id="XMLID_261_">
				<path id="XMLID_262_" style="fill:#FFFFFF;" d="M163.6,21.6c-2.3,3.7-5.9,5.5-9.4,5.5c-5.1,0-10.2-2.9-10.2-8.7V9.1
					c0-5.7,5.1-8.7,10.3-8.7c3.5,0,7.3,1.8,9.1,5.6L159,8.4c-2.3-4.3-9.6-3.4-9.6,0.7v9.3c0,4,7.3,4.9,9.5,0.6L163.6,21.6z"/>
			</g>
			<g id="XMLID_258_">
				<path id="XMLID_259_" style="fill:#FFFFFF;" d="M171.4,0.7v10.9l9.3-10.9h6.6l-11.2,12.8l11.2,13.3h-6.7l-8.2-9.7l-1,1v8.7h-5.4
					V0.7H171.4z"/>
			</g>
			<g id="XMLID_255_">
				<path id="XMLID_256_" style="fill:#FFFFFF;" d="M207.4,14.9h-15.2v12H190V0.7h2.2v12h15.2v-12h2.2v26.1h-2.2V14.9z"/>
			</g>
			<g id="XMLID_251_">
				<path id="XMLID_252_" style="fill:#FFFFFF;" d="M222.3,0.7h3.2l9.5,26.1h-2.3l-3.1-8.7h-11.2l-3.1,8.7h-2.3L222.3,0.7z
					 M228.7,15.9l-4.8-13.6l-4.8,13.6H228.7z"/>
			</g>
			<g id="XMLID_247_">
				<path id="XMLID_248_" style="fill:#FFFFFF;" d="M256.9,26.8h-2.6l-8.8-11.1h-5c0,3.7,0,7.5,0,11.1h-2.2V0.7h9.9
					c4.9,0,8.6,2.2,8.8,7.6c0,5.4-4,7.5-8.7,7.5h-0.1L256.9,26.8z M248.2,13.8c4,0,6.5-1.3,6.5-5.5c0-4.1-2.7-5.5-6.5-5.4h-7.7v10.9
					H248.2z"/>
			</g>
			<g id="XMLID_242_">
				<path id="XMLID_243_" style="fill:#FFFFFF;" d="M280.1,19.6c-0.1,5.4-3.8,7.3-8.8,7.3h-9.9V0.6h9.9c4.1,0,7.5,2.2,7.5,6.6
					c0,2.3-0.7,4.4-2.8,5.6C279.1,14,280.1,16.4,280.1,19.6z M271.3,11.9c3.1,0,5.3-1.3,5.3-4.6c0-3.3-2.4-4.5-5.3-4.5h-7.8v9H271.3
					z M263.6,14.1v10.6h7.8c3.8,0.1,6.5-1,6.5-5.1c0-4.1-2.5-5.5-6.5-5.5H263.6z"/>
			</g>
			<g id="XMLID_233_">
				<path id="XMLID_234_" style="fill:#FFFFFF;" d="M304.7,8v11.4c0,10.7-20.7,10.7-20.7,0V8C284-2.7,304.7-2.7,304.7,8z
					 M286.2,19.4c0,7.8,16.3,7.8,16.4,0V8c0-4.1-4.1-5.9-8.2-5.9c-4.1,0-8.1,1.8-8.1,5.9V19.4z"/>
			</g>
			<g id="XMLID_228_">
				<path id="XMLID_229_" style="fill:#FFFFFF;" d="M328.5,26.8h-2.6l-8.8-11.1h-5c0,3.7,0,7.5,0,11.1h-2.2V0.7h9.9
					c4.9,0,8.6,2.2,8.8,7.6c0,5.4-4,7.5-8.7,7.5h-0.1L328.5,26.8z M319.8,13.8c4,0,6.5-1.3,6.5-5.5c0-4.1-2.7-5.5-6.5-5.4h-7.7v10.9
					H319.8z"/>
			</g>
		</g>
		<path id="XMLID_217_" style="display:inline;fill:#FFFFFF;" d="M59,31c-2.4-6.7-13.8-8.3-26.2-3.8c2.7-1.6,5.7-3.1,8.8-4.4
			c15.7-6.6,30.8-6.6,36.3-0.5c-0.1-0.3-0.1-0.6-0.2-0.9c-0.4-1.8-1.7-3.3-3.6-4.1c-4.2-1.7-9-3-14.2-4c-5.5-0.2-12.3,1.4-19.2,4.4
			C26.9,24,18.3,34.7,21.4,41.9c2.9,6.7,15.1,7.9,28,2.9c-2.8,1.7-5.8,3.3-9.1,4.8c-9.8,4.4-19.5,6.3-27,5.8c3.3,0.8,6.8,1.5,10.4,2
			c4.7,0,10.2-1.1,15.7-3.5C52.8,48.5,61.5,38.1,59,31z M79.1,32.7c-3,7.7-13,16.4-26.3,22c-4.3,1.8-8.6,3.1-12.6,3.9
			c12.7-0.1,24.7-2.1,33.9-5.7c1.9-0.8,3.2-2.3,3.6-4.1c1-4.4,1.5-9,1.5-13.7C79.2,34.3,79.1,33.5,79.1,32.7z M47.2,11.9
			c-2.5-0.2-5-0.2-7.6-0.2c-12.9,0-25.2,2-34.5,5.8c-1.9,0.7-3.2,2.3-3.6,4.1c-1,4.4-1.5,9-1.5,13.7c0,1.7,0.1,3.3,0.2,5
			c3.2-7.7,13-16.4,26.3-22.3C33.8,14.5,40.9,12.6,47.2,11.9z"/>
	</g>
	<g id="XMLID_281_" style="display:none;">
		<g id="XMLID_591_" style="display:inline;">
			<path id="XMLID_592_" style="fill:#FFFFFF;" d="M113.6,43.3v24.3H110v-19h-0.1l-3.8,19h-2l-3.8-19h-0.1v19h-3.6V43.3h5.5l3,14.2
				h0.1l3-14.2H113.6z"/>
			<path id="XMLID_594_" style="fill:#FFFFFF;" d="M123.1,67.7V43.3h4.2v24.3H123.1z"/>
			<path id="XMLID_596_" style="fill:#FFFFFF;" d="M144.5,49.3c-0.2-2.1-1.3-2.7-2.2-2.7c-1.3,0-2.1,0.9-2.1,2.4
				c0,4.1,8.5,6.1,8.5,12.7c0,4-2.7,6.2-6.6,6.2c-3.9,0-6.1-3.1-6.3-6.7l4-0.6c0.2,2.5,1.1,3.7,2.5,3.7c1.5,0,2.4-0.8,2.4-2.2
				c0-4.8-8.5-6.1-8.5-13.1c0-3.9,2.4-6.1,6.5-6.1c3.4,0,5.4,2.5,5.8,5.9L144.5,49.3z"/>
			<path id="XMLID_598_" style="fill:#FFFFFF;" d="M164.6,49.3c-0.2-2.1-1.3-2.7-2.2-2.7c-1.3,0-2.1,0.9-2.1,2.4
				c0,4.1,8.5,6.1,8.5,12.7c0,4-2.7,6.2-6.6,6.2c-3.9,0-6.1-3.1-6.3-6.7l4-0.6c0.2,2.5,1.1,3.7,2.5,3.7c1.4,0,2.4-0.8,2.4-2.2
				c0-4.8-8.5-6.1-8.5-13.1c0-3.9,2.4-6.1,6.5-6.1c3.4,0,5.4,2.5,5.8,5.9L164.6,49.3z"/>
			<path id="XMLID_600_" style="fill:#FFFFFF;" d="M177.5,67.7V43.3h4.2v24.3H177.5z"/>
			<path id="XMLID_602_" style="fill:#FFFFFF;" d="M191.4,49.2c0-3.4,2-6.2,6.4-6.2c4.4,0,6.4,2.8,6.4,6.2v12.5c0,3.4-2,6.2-6.4,6.2
				c-4.4,0-6.4-2.8-6.4-6.2V49.2z M195.6,61.7c0,1.8,0.5,2.7,2.2,2.7c1.7,0,2.2-0.9,2.2-2.7V49.3c0-1.8-0.5-2.7-2.2-2.7
				c-1.7,0-2.2,0.9-2.2,2.7V61.7z"/>
			<path id="XMLID_605_" style="fill:#FFFFFF;" d="M213.3,67.7V43.3h3.9l5.1,13.9h0.1V43.3h3.8v24.3h-3.6l-5.3-15.2h-0.1v15.2H213.3
				z"/>
			<path id="XMLID_607_" style="fill:#FFFFFF;" d="M256.2,43.3h4.1l-5.1,24.3h-4.2L246,43.3h4.1l3,16.9h0.1L256.2,43.3z"/>
			<path id="XMLID_609_" style="fill:#FFFFFF;" d="M268.3,67.7V43.3h4.2v24.3H268.3z"/>
			<path id="XMLID_611_" style="fill:#FFFFFF;" d="M282.2,67.7V43.3h11.2V47h-7v6.3h5.4v3.6h-5.4V64h7.5v3.6H282.2z"/>
			<path id="XMLID_613_" style="fill:#FFFFFF;" d="M300.2,64.4h0.9c1.6,0,2.2-0.7,2.2-2v-19h4.2v19.5c0,3.1-1.2,5.2-5.9,5.2h-1.4
				V64.4z"/>
			<path id="XMLID_615_" style="fill:#FFFFFF;" d="M316.6,49.2c0-3.4,2-6.2,6.4-6.2c4.4,0,6.4,2.8,6.4,6.2v12.5c0,3.4-2,6.2-6.4,6.2
				c-4.4,0-6.4-2.8-6.4-6.2V49.2z M320.8,61.7c0,1.8,0.5,2.7,2.2,2.7c1.7,0,2.2-0.9,2.2-2.7V49.3c0-1.8-0.5-2.7-2.2-2.7
				c-1.7,0-2.2,0.9-2.2,2.7V61.7z"/>
		</g>
		<g id="XMLID_292_" style="display:inline;">
			<g id="XMLID_333_">
				<path id="XMLID_334_" style="fill:#FFFFFF;" d="M118.3,26.8h-6.7l-7.4-9.6h-1.9v9.6h-5.5V0.7h10.3c5.2,0,9.2,2.4,9.3,8.3
					c0,4.8-2.2,7.1-5.9,7.9L118.3,26.8z M107.1,12.3c2.4,0,3.9-1,3.9-3.3c0-2.2-1.6-3-3.9-2.9h-4.8v6.2H107.1z"/>
			</g>
			<g id="XMLID_329_">
				<path id="XMLID_330_" style="fill:#FFFFFF;" d="M140.7,8.8v9.8c0,11.6-21.4,11.6-21.4,0V8.8C119.3-2.8,140.7-2.8,140.7,8.8z
					 M124.7,18.7c0,4.4,10.6,4.4,10.6,0V8.8c0-4.5-10.6-4.4-10.6,0V18.7z"/>
			</g>
			<g id="XMLID_326_">
				<path id="XMLID_327_" style="fill:#FFFFFF;" d="M163.6,21.6c-2.3,3.7-5.9,5.5-9.4,5.5c-5.1,0-10.2-2.9-10.2-8.7V9.1
					c0-5.7,5.1-8.7,10.3-8.7c3.5,0,7.3,1.8,9.1,5.6L159,8.4c-2.3-4.3-9.6-3.4-9.6,0.7v9.3c0,4,7.3,4.9,9.5,0.6L163.6,21.6z"/>
			</g>
			<g id="XMLID_323_">
				<path id="XMLID_324_" style="fill:#FFFFFF;" d="M171.4,0.7v10.9l9.3-10.9h6.6l-11.2,12.8l11.2,13.3h-6.7l-8.2-9.7l-1,1v8.7h-5.4
					V0.7H171.4z"/>
			</g>
			<g id="XMLID_320_">
				<path id="XMLID_321_" style="fill:#FFFFFF;" d="M207.4,14.9h-15.2v12H190V0.7h2.2v12h15.2v-12h2.2v26.1h-2.2V14.9z"/>
			</g>
			<g id="XMLID_316_">
				<path id="XMLID_317_" style="fill:#FFFFFF;" d="M222.3,0.7h3.2l9.5,26.1h-2.3l-3.1-8.7h-11.2l-3.1,8.7h-2.3L222.3,0.7z
					 M228.7,15.9l-4.8-13.6l-4.8,13.6H228.7z"/>
			</g>
			<g id="XMLID_312_">
				<path id="XMLID_313_" style="fill:#FFFFFF;" d="M256.9,26.8h-2.6l-8.8-11.1h-5c0,3.7,0,7.5,0,11.1h-2.2V0.7h9.9
					c4.9,0,8.6,2.2,8.8,7.6c0,5.4-4,7.5-8.7,7.5h-0.1L256.9,26.8z M248.2,13.8c4,0,6.5-1.3,6.5-5.5c0-4.1-2.7-5.5-6.5-5.4h-7.7v10.9
					H248.2z"/>
			</g>
			<g id="XMLID_307_">
				<path id="XMLID_308_" style="fill:#FFFFFF;" d="M280.1,19.6c-0.1,5.4-3.8,7.3-8.8,7.3h-9.9V0.6h9.9c4.1,0,7.5,2.2,7.5,6.6
					c0,2.3-0.7,4.4-2.8,5.6C279.1,14,280.1,16.4,280.1,19.6z M271.3,11.9c3.1,0,5.3-1.3,5.3-4.6c0-3.3-2.4-4.5-5.3-4.5h-7.8v9H271.3
					z M263.6,14.1v10.6h7.8c3.8,0.1,6.5-1,6.5-5.1c0-4.1-2.5-5.5-6.5-5.5H263.6z"/>
			</g>
			<g id="XMLID_298_">
				<path id="XMLID_299_" style="fill:#FFFFFF;" d="M304.7,8v11.4c0,10.7-20.7,10.7-20.7,0V8C284-2.7,304.7-2.7,304.7,8z
					 M286.2,19.4c0,7.8,16.3,7.8,16.4,0V8c0-4.1-4.1-5.9-8.2-5.9c-4.1,0-8.1,1.8-8.1,5.9V19.4z"/>
			</g>
			<g id="XMLID_293_">
				<path id="XMLID_294_" style="fill:#FFFFFF;" d="M328.5,26.8h-2.6l-8.8-11.1h-5c0,3.7,0,7.5,0,11.1h-2.2V0.7h9.9
					c4.9,0,8.6,2.2,8.8,7.6c0,5.4-4,7.5-8.7,7.5h-0.1L328.5,26.8z M319.8,13.8c4,0,6.5-1.3,6.5-5.5c0-4.1-2.7-5.5-6.5-5.4h-7.7v10.9
					H319.8z"/>
			</g>
		</g>
		<path id="XMLID_282_" style="display:inline;fill:#FFFFFF;" d="M59,31c-2.4-6.7-13.8-8.3-26.2-3.8c2.7-1.6,5.7-3.1,8.8-4.4
			c15.7-6.6,30.8-6.6,36.3-0.5c-0.1-0.3-0.1-0.6-0.2-0.9c-0.4-1.8-1.7-3.3-3.6-4.1c-4.2-1.7-9-3-14.2-4c-5.5-0.2-12.3,1.4-19.2,4.4
			C26.9,24,18.3,34.7,21.4,41.9c2.9,6.7,15.1,7.9,28,2.9c-2.8,1.7-5.8,3.3-9.1,4.8c-9.8,4.4-19.5,6.3-27,5.8c3.3,0.8,6.8,1.5,10.4,2
			c4.7,0,10.2-1.1,15.7-3.5C52.8,48.5,61.5,38.1,59,31z M79.1,32.7c-3,7.7-13,16.4-26.3,22c-4.3,1.8-8.6,3.1-12.6,3.9
			c12.7-0.1,24.7-2.1,33.9-5.7c1.9-0.8,3.2-2.3,3.6-4.1c1-4.4,1.5-9,1.5-13.7C79.2,34.3,79.1,33.5,79.1,32.7z M47.2,11.9
			c-2.5-0.2-5-0.2-7.6-0.2c-12.9,0-25.2,2-34.5,5.8c-1.9,0.7-3.2,2.3-3.6,4.1c-1,4.4-1.5,9-1.5,13.7c0,1.7,0.1,3.3,0.2,5
			c3.2-7.7,13-16.4,26.3-22.3C33.8,14.5,40.9,12.6,47.2,11.9z"/>
	</g>
	<g id="XMLID_346_" style="display:none;">
		<g id="XMLID_569_" style="display:inline;">
			<path id="XMLID_570_" style="fill:#FFFFFF;" d="M105.3,51.4v-1.9c0-2.1-0.9-2.9-2-2.9c-1.7,0-2.2,0.9-2.2,2.7v12.3
				c0,1.8,0.5,2.7,2.2,2.7c1.5,0,2-0.9,2-2.5V59h4.2v2.8c0,3.4-2,6.2-6.2,6.2c-4.4,0-6.4-2.8-6.4-6.2V49.2c0-3.4,2-6.2,6.4-6.2
				c4.2,0,6.2,3,6.2,6.7v1.8H105.3z"/>
			<path id="XMLID_572_" style="fill:#FFFFFF;" d="M118.8,67.7V43.3h4.2v9.9h4.4v-9.9h4.2v24.3h-4.2V56.9h-4.4v10.8H118.8z"/>
			<path id="XMLID_574_" style="fill:#FFFFFF;" d="M143.1,67.7h-4l4.5-24.3h5.2l4.5,24.3h-4l-0.7-5.4h-4.6L143.1,67.7z M144.4,58.6
				h3.4l-1.7-10.4h-0.1L144.4,58.6z"/>
			<path id="XMLID_577_" style="fill:#FFFFFF;" d="M164.9,67.7h-4.2V43.3h5.9c4.7,0,7.1,2,7.1,7.2c0,3.9-1.5,5.5-2.9,6.1l3.5,11H170
				l-3-10.1c-0.5,0.1-1.4,0.1-2.2,0.1V67.7z M164.9,54.2h1.5c2.3,0,3.1-0.8,3.1-3.7s-0.8-3.7-3.1-3.7h-1.5V54.2z"/>
			<path id="XMLID_580_" style="fill:#FFFFFF;" d="M182.4,67.7V43.3h4.2V64h6.6v3.6H182.4z"/>
			<path id="XMLID_582_" style="fill:#FFFFFF;" d="M200.7,49.2c0-3.4,2-6.2,6.4-6.2c4.4,0,6.4,2.8,6.4,6.2v12.5c0,3.4-2,6.2-6.4,6.2
				c-4.4,0-6.4-2.8-6.4-6.2V49.2z M204.9,61.7c0,1.8,0.5,2.7,2.2,2.7c1.7,0,2.2-0.9,2.2-2.7V49.3c0-1.8-0.5-2.7-2.2-2.7
				c-1.7,0-2.2,0.9-2.2,2.7V61.7z"/>
			<path id="XMLID_585_" style="fill:#FFFFFF;" d="M225.1,47h-4v-3.6h12.3V47h-4v20.7h-4.2V47z"/>
			<path id="XMLID_587_" style="fill:#FFFFFF;" d="M243.2,47h-4v-3.6h12.3V47h-4v20.7h-4.2V47z"/>
			<path id="XMLID_589_" style="fill:#FFFFFF;" d="M259,67.7V43.3h11.2V47h-7v6.3h5.4v3.6h-5.4V64h7.5v3.6H259z"/>
		</g>
		<g id="XMLID_357_" style="display:inline;">
			<g id="XMLID_398_">
				<path id="XMLID_399_" style="fill:#FFFFFF;" d="M118.3,26.8h-6.7l-7.4-9.6h-1.9v9.6h-5.5V0.7h10.3c5.2,0,9.2,2.4,9.3,8.3
					c0,4.8-2.2,7.1-5.9,7.9L118.3,26.8z M107.1,12.3c2.4,0,3.9-1,3.9-3.3c0-2.2-1.6-3-3.9-2.9h-4.8v6.2H107.1z"/>
			</g>
			<g id="XMLID_394_">
				<path id="XMLID_395_" style="fill:#FFFFFF;" d="M140.7,8.8v9.8c0,11.6-21.4,11.6-21.4,0V8.8C119.3-2.8,140.7-2.8,140.7,8.8z
					 M124.7,18.7c0,4.4,10.6,4.4,10.6,0V8.8c0-4.5-10.6-4.4-10.6,0V18.7z"/>
			</g>
			<g id="XMLID_391_">
				<path id="XMLID_392_" style="fill:#FFFFFF;" d="M163.6,21.6c-2.3,3.7-5.9,5.5-9.4,5.5c-5.1,0-10.2-2.9-10.2-8.7V9.1
					c0-5.7,5.1-8.7,10.3-8.7c3.5,0,7.3,1.8,9.1,5.6L159,8.4c-2.3-4.3-9.6-3.4-9.6,0.7v9.3c0,4,7.3,4.9,9.5,0.6L163.6,21.6z"/>
			</g>
			<g id="XMLID_388_">
				<path id="XMLID_389_" style="fill:#FFFFFF;" d="M171.4,0.7v10.9l9.3-10.9h6.6l-11.2,12.8l11.2,13.3h-6.7l-8.2-9.7l-1,1v8.7h-5.4
					V0.7H171.4z"/>
			</g>
			<g id="XMLID_385_">
				<path id="XMLID_386_" style="fill:#FFFFFF;" d="M207.4,14.9h-15.2v12H190V0.7h2.2v12h15.2v-12h2.2v26.1h-2.2V14.9z"/>
			</g>
			<g id="XMLID_381_">
				<path id="XMLID_382_" style="fill:#FFFFFF;" d="M222.3,0.7h3.2l9.5,26.1h-2.3l-3.1-8.7h-11.2l-3.1,8.7h-2.3L222.3,0.7z
					 M228.7,15.9l-4.8-13.6l-4.8,13.6H228.7z"/>
			</g>
			<g id="XMLID_377_">
				<path id="XMLID_378_" style="fill:#FFFFFF;" d="M256.9,26.8h-2.6l-8.8-11.1h-5c0,3.7,0,7.5,0,11.1h-2.2V0.7h9.9
					c4.9,0,8.6,2.2,8.8,7.6c0,5.4-4,7.5-8.7,7.5h-0.1L256.9,26.8z M248.2,13.8c4,0,6.5-1.3,6.5-5.5c0-4.1-2.7-5.5-6.5-5.4h-7.7v10.9
					H248.2z"/>
			</g>
			<g id="XMLID_372_">
				<path id="XMLID_373_" style="fill:#FFFFFF;" d="M280.1,19.6c-0.1,5.4-3.8,7.3-8.8,7.3h-9.9V0.6h9.9c4.1,0,7.5,2.2,7.5,6.6
					c0,2.3-0.7,4.4-2.8,5.6C279.1,14,280.1,16.4,280.1,19.6z M271.3,11.9c3.1,0,5.3-1.3,5.3-4.6c0-3.3-2.4-4.5-5.3-4.5h-7.8v9H271.3
					z M263.6,14.1v10.6h7.8c3.8,0.1,6.5-1,6.5-5.1c0-4.1-2.5-5.5-6.5-5.5H263.6z"/>
			</g>
			<g id="XMLID_363_">
				<path id="XMLID_364_" style="fill:#FFFFFF;" d="M304.7,8v11.4c0,10.7-20.7,10.7-20.7,0V8C284-2.7,304.7-2.7,304.7,8z
					 M286.2,19.4c0,7.8,16.3,7.8,16.4,0V8c0-4.1-4.1-5.9-8.2-5.9c-4.1,0-8.1,1.8-8.1,5.9V19.4z"/>
			</g>
			<g id="XMLID_358_">
				<path id="XMLID_359_" style="fill:#FFFFFF;" d="M328.5,26.8h-2.6l-8.8-11.1h-5c0,3.7,0,7.5,0,11.1h-2.2V0.7h9.9
					c4.9,0,8.6,2.2,8.8,7.6c0,5.4-4,7.5-8.7,7.5h-0.1L328.5,26.8z M319.8,13.8c4,0,6.5-1.3,6.5-5.5c0-4.1-2.7-5.5-6.5-5.4h-7.7v10.9
					H319.8z"/>
			</g>
		</g>
		<path id="XMLID_347_" style="display:inline;fill:#FFFFFF;" d="M59,31c-2.4-6.7-13.8-8.3-26.2-3.8c2.7-1.6,5.7-3.1,8.8-4.4
			c15.7-6.6,30.8-6.6,36.3-0.5c-0.1-0.3-0.1-0.6-0.2-0.9c-0.4-1.8-1.7-3.3-3.6-4.1c-4.2-1.7-9-3-14.2-4c-5.5-0.2-12.3,1.4-19.2,4.4
			C26.9,24,18.3,34.7,21.4,41.9c2.9,6.7,15.1,7.9,28,2.9c-2.8,1.7-5.8,3.3-9.1,4.8c-9.8,4.4-19.5,6.3-27,5.8c3.3,0.8,6.8,1.5,10.4,2
			c4.7,0,10.2-1.1,15.7-3.5C52.8,48.5,61.5,38.1,59,31z M79.1,32.7c-3,7.7-13,16.4-26.3,22c-4.3,1.8-8.6,3.1-12.6,3.9
			c12.7-0.1,24.7-2.1,33.9-5.7c1.9-0.8,3.2-2.3,3.6-4.1c1-4.4,1.5-9,1.5-13.7C79.2,34.3,79.1,33.5,79.1,32.7z M47.2,11.9
			c-2.5-0.2-5-0.2-7.6-0.2c-12.9,0-25.2,2-34.5,5.8c-1.9,0.7-3.2,2.3-3.6,4.1c-1,4.4-1.5,9-1.5,13.7c0,1.7,0.1,3.3,0.2,5
			c3.2-7.7,13-16.4,26.3-22.3C33.8,14.5,40.9,12.6,47.2,11.9z"/>
	</g>
	<g id="XMLID_411_" style="display:none;">
		<g id="XMLID_534_" style="display:inline;">
			<path id="XMLID_535_" style="fill:#FFFFFF;" d="M96.9,67.7V43.3h4.2v9.9h4.4v-9.9h4.2v24.3h-4.2V56.9H101v10.8H96.9z"/>
			<path id="XMLID_537_" style="fill:#FFFFFF;" d="M118.8,43.3h4.2v18.4c0,1.8,0.7,2.7,2.2,2.7c1.5,0,2.2-0.9,2.2-2.7V43.3h4.2v18.2
				c0,4.2-2.4,6.5-6.4,6.5c-4,0-6.4-2.3-6.4-6.5V43.3z"/>
			<path id="XMLID_539_" style="fill:#FFFFFF;" d="M140.7,67.7V43.3h3.9l5.1,13.9h0.1V43.3h3.8v24.3h-3.6l-5.3-15.2h-0.1v15.2H140.7
				z"/>
			<path id="XMLID_541_" style="fill:#FFFFFF;" d="M165,47h-4v-3.6h12.3V47h-4v20.7H165V47z"/>
			<path id="XMLID_543_" style="fill:#FFFFFF;" d="M181.3,67.7V43.3h4.2v24.3H181.3z"/>
			<path id="XMLID_545_" style="fill:#FFFFFF;" d="M195.1,67.7V43.3h3.9l5.1,13.9h0.1V43.3h3.8v24.3h-3.6L199,52.5h-0.1v15.2H195.1z
				"/>
			<path id="XMLID_547_" style="fill:#FFFFFF;" d="M222.8,55.3h6.8v12.3h-2l-0.8-1.8c-1.2,1.5-2.3,2.2-4.2,2.2
				c-3.3,0-5.6-2.4-5.6-6.2V49.2c0-3.4,2-6.2,6.1-6.2c4.2,0,6.3,3,6.3,6.7v1.6h-4c0-3.6-0.7-4.6-2.4-4.6c-1,0-1.9,0.6-1.9,2.7v12.5
				c0,1.6,0.5,2.6,2,2.6c1.7,0,2.3-0.9,2.3-3.4v-2.4h-2.7V55.3z"/>
			<path id="XMLID_549_" style="fill:#FFFFFF;" d="M241.4,47h-4v-3.6h12.3V47h-4v20.7h-4.2V47z"/>
			<path id="XMLID_551_" style="fill:#FFFFFF;" d="M257.1,49.2c0-3.4,2-6.2,6.4-6.2s6.4,2.8,6.4,6.2v12.5c0,3.4-2,6.2-6.4,6.2
				s-6.4-2.8-6.4-6.2V49.2z M261.3,61.7c0,1.8,0.5,2.7,2.2,2.7c1.7,0,2.2-0.9,2.2-2.7V49.3c0-1.8-0.5-2.7-2.2-2.7
				c-1.7,0-2.2,0.9-2.2,2.7V61.7z"/>
			<path id="XMLID_554_" style="fill:#FFFFFF;" d="M279,67.7V43.3h3.9l5.1,13.9h0.1V43.3h3.8v24.3h-3.6l-5.3-15.2h-0.1v15.2H279z"/>
			<path id="XMLID_556_" style="fill:#FFFFFF;" d="M313.5,43.3h6.2c4.5,0,6.5,2.3,6.5,6.4c0,2.1-0.9,4.3-2.9,5.1
				c2.1,0.9,3.4,2.6,3.4,5.8c0,4-1.8,7-6.5,7h-6.6V43.3z M317.6,53.3h1.5c1.6,0,2.8-1.1,2.8-3.1c0-2.3-0.9-3.4-2.7-3.4h-1.6V53.3z
				 M317.6,64.2h1.8c2.2,0,3-1.3,3-3.7c0-2.5-0.9-3.7-3.4-3.7h-1.3V64.2z"/>
			<path id="XMLID_560_" style="fill:#FFFFFF;" d="M335.4,67.7V43.3h11.2V47h-7v6.3h5.4v3.6h-5.4V64h7.5v3.6H335.4z"/>
			<path id="XMLID_562_" style="fill:#FFFFFF;" d="M357.8,67.7h-4l4.5-24.3h5.2l4.5,24.3h-4l-0.7-5.4h-4.6L357.8,67.7z M359.2,58.6
				h3.4l-1.7-10.4h-0.1L359.2,58.6z"/>
			<path id="XMLID_565_" style="fill:#FFFFFF;" d="M383.8,51.4v-1.9c0-2.1-0.9-2.9-2-2.9c-1.7,0-2.2,0.9-2.2,2.7v12.3
				c0,1.8,0.5,2.7,2.2,2.7c1.5,0,2-0.9,2-2.5V59h4.2v2.8c0,3.4-2,6.2-6.2,6.2c-4.4,0-6.4-2.8-6.4-6.2V49.2c0-3.4,2-6.2,6.4-6.2
				c4.2,0,6.2,3,6.2,6.7v1.8H383.8z"/>
			<path id="XMLID_567_" style="fill:#FFFFFF;" d="M397.3,67.7V43.3h4.2v9.9h4.4v-9.9h4.2v24.3h-4.2V56.9h-4.4v10.8H397.3z"/>
		</g>
		<g id="XMLID_422_" style="display:inline;">
			<g id="XMLID_463_">
				<path id="XMLID_464_" style="fill:#FFFFFF;" d="M118.3,26.8h-6.7l-7.4-9.6h-1.9v9.6h-5.5V0.7h10.3c5.2,0,9.2,2.4,9.3,8.3
					c0,4.8-2.2,7.1-5.9,7.9L118.3,26.8z M107.1,12.3c2.4,0,3.9-1,3.9-3.3c0-2.2-1.6-3-3.9-2.9h-4.8v6.2H107.1z"/>
			</g>
			<g id="XMLID_459_">
				<path id="XMLID_460_" style="fill:#FFFFFF;" d="M140.7,8.8v9.8c0,11.6-21.4,11.6-21.4,0V8.8C119.3-2.8,140.7-2.8,140.7,8.8z
					 M124.7,18.7c0,4.4,10.6,4.4,10.6,0V8.8c0-4.5-10.6-4.4-10.6,0V18.7z"/>
			</g>
			<g id="XMLID_456_">
				<path id="XMLID_457_" style="fill:#FFFFFF;" d="M163.6,21.6c-2.3,3.7-5.9,5.5-9.4,5.5c-5.1,0-10.2-2.9-10.2-8.7V9.1
					c0-5.7,5.1-8.7,10.3-8.7c3.5,0,7.3,1.8,9.1,5.6L159,8.4c-2.3-4.3-9.6-3.4-9.6,0.7v9.3c0,4,7.3,4.9,9.5,0.6L163.6,21.6z"/>
			</g>
			<g id="XMLID_453_">
				<path id="XMLID_454_" style="fill:#FFFFFF;" d="M171.4,0.7v10.9l9.3-10.9h6.6l-11.2,12.8l11.2,13.3h-6.7l-8.2-9.7l-1,1v8.7h-5.4
					V0.7H171.4z"/>
			</g>
			<g id="XMLID_450_">
				<path id="XMLID_451_" style="fill:#FFFFFF;" d="M207.4,14.9h-15.2v12H190V0.7h2.2v12h15.2v-12h2.2v26.1h-2.2V14.9z"/>
			</g>
			<g id="XMLID_446_">
				<path id="XMLID_447_" style="fill:#FFFFFF;" d="M222.3,0.7h3.2l9.5,26.1h-2.3l-3.1-8.7h-11.2l-3.1,8.7h-2.3L222.3,0.7z
					 M228.7,15.9l-4.8-13.6l-4.8,13.6H228.7z"/>
			</g>
			<g id="XMLID_442_">
				<path id="XMLID_443_" style="fill:#FFFFFF;" d="M256.9,26.8h-2.6l-8.8-11.1h-5c0,3.7,0,7.5,0,11.1h-2.2V0.7h9.9
					c4.9,0,8.6,2.2,8.8,7.6c0,5.4-4,7.5-8.7,7.5h-0.1L256.9,26.8z M248.2,13.8c4,0,6.5-1.3,6.5-5.5c0-4.1-2.7-5.5-6.5-5.4h-7.7v10.9
					H248.2z"/>
			</g>
			<g id="XMLID_437_">
				<path id="XMLID_438_" style="fill:#FFFFFF;" d="M280.1,19.6c-0.1,5.4-3.8,7.3-8.8,7.3h-9.9V0.6h9.9c4.1,0,7.5,2.2,7.5,6.6
					c0,2.3-0.7,4.4-2.8,5.6C279.1,14,280.1,16.4,280.1,19.6z M271.3,11.9c3.1,0,5.3-1.3,5.3-4.6c0-3.3-2.4-4.5-5.3-4.5h-7.8v9H271.3
					z M263.6,14.1v10.6h7.8c3.8,0.1,6.5-1,6.5-5.1c0-4.1-2.5-5.5-6.5-5.5H263.6z"/>
			</g>
			<g id="XMLID_428_">
				<path id="XMLID_429_" style="fill:#FFFFFF;" d="M304.7,8v11.4c0,10.7-20.7,10.7-20.7,0V8C284-2.7,304.7-2.7,304.7,8z
					 M286.2,19.4c0,7.8,16.3,7.8,16.4,0V8c0-4.1-4.1-5.9-8.2-5.9c-4.1,0-8.1,1.8-8.1,5.9V19.4z"/>
			</g>
			<g id="XMLID_423_">
				<path id="XMLID_424_" style="fill:#FFFFFF;" d="M328.5,26.8h-2.6l-8.8-11.1h-5c0,3.7,0,7.5,0,11.1h-2.2V0.7h9.9
					c4.9,0,8.6,2.2,8.8,7.6c0,5.4-4,7.5-8.7,7.5h-0.1L328.5,26.8z M319.8,13.8c4,0,6.5-1.3,6.5-5.5c0-4.1-2.7-5.5-6.5-5.4h-7.7v10.9
					H319.8z"/>
			</g>
		</g>
		<path id="XMLID_412_" style="display:inline;fill:#FFFFFF;" d="M59,31c-2.4-6.7-13.8-8.3-26.2-3.8c2.7-1.6,5.7-3.1,8.8-4.4
			c15.7-6.6,30.8-6.6,36.3-0.5c-0.1-0.3-0.1-0.6-0.2-0.9c-0.4-1.8-1.7-3.3-3.6-4.1c-4.2-1.7-9-3-14.2-4c-5.5-0.2-12.3,1.4-19.2,4.4
			C26.9,24,18.3,34.7,21.4,41.9c2.9,6.7,15.1,7.9,28,2.9c-2.8,1.7-5.8,3.3-9.1,4.8c-9.8,4.4-19.5,6.3-27,5.8c3.3,0.8,6.8,1.5,10.4,2
			c4.7,0,10.2-1.1,15.7-3.5C52.8,48.5,61.5,38.1,59,31z M79.1,32.7c-3,7.7-13,16.4-26.3,22c-4.3,1.8-8.6,3.1-12.6,3.9
			c12.7-0.1,24.7-2.1,33.9-5.7c1.9-0.8,3.2-2.3,3.6-4.1c1-4.4,1.5-9,1.5-13.7C79.2,34.3,79.1,33.5,79.1,32.7z M47.2,11.9
			c-2.5-0.2-5-0.2-7.6-0.2c-12.9,0-25.2,2-34.5,5.8c-1.9,0.7-3.2,2.3-3.6,4.1c-1,4.4-1.5,9-1.5,13.7c0,1.7,0.1,3.3,0.2,5
			c3.2-7.7,13-16.4,26.3-22.3C33.8,14.5,40.9,12.6,47.2,11.9z"/>
	</g>
</g>
</svg>
